<svg width="412" height="167" viewBox="0 0 412 167" fill="none" xmlns="http://www.w3.org/2000/svg">
<path d="M3.63351 99.3298C4.1218 100.144 4.44917 100.931 4.61563 101.689L4.64121 102.171C4.84883 102.578 4.93401 103.213 4.89672 104.076L4.98903 104.688L5.07802 104.863C4.99014 104.835 4.95445 104.944 4.97095 105.193C4.95667 105.237 4.96464 105.324 4.99485 105.455C4.98113 105.572 4.97455 105.667 4.97511 105.74C4.99548 106.5 4.92604 106.975 4.76679 107.166L4.81377 107.582L4.68695 108.197L4.73394 108.613L4.60629 109.118L4.63519 110.038L4.37822 110.829L4.34122 111.728C4.31267 111.816 4.29153 111.918 4.27781 112.035C4.23443 112.094 4.22015 112.138 4.23498 112.167C4.26464 112.225 4.27975 112.291 4.2803 112.364L4.19465 112.627C4.11343 113.475 3.97178 114.061 3.7697 114.384C3.71149 114.413 3.67525 114.45 3.66097 114.494C3.66097 114.494 3.61731 114.516 3.52999 114.561C3.57393 114.575 3.55993 114.656 3.488 114.802L3.46658 114.868C3.56984 114.999 3.59978 115.094 3.5564 115.152C3.52729 115.167 3.47649 115.211 3.404 115.285L3.33893 115.373C3.33893 115.373 3.35348 115.366 3.38259 115.351C3.36831 115.395 3.3469 115.461 3.31835 115.549L3.12479 116.032L2.62978 117.219C2.60123 117.307 2.59437 117.366 2.6092 117.395C2.6383 117.38 2.64572 117.394 2.63145 117.438C2.61717 117.482 2.57434 117.614 2.50296 117.834C2.41675 118.024 2.26547 118.303 2.04911 118.67L1.74516 119.045C1.70178 119.104 1.60843 119.316 1.46512 119.683C1.35091 120.034 1.20732 120.364 1.03435 120.672L0.666987 121.354L0.0179191 122.455L-0.545493 123.292L-1.50018 124.548C-1.52928 124.563 -1.53642 124.585 -1.52159 124.614C-1.52159 124.614 -1.51417 124.629 -1.49934 124.658L-1.6954 124.812C-1.81127 124.945 -1.86179 125.026 -1.84696 125.055L-2.17315 125.386C-2.17315 125.386 -2.15832 125.415 -2.12866 125.473L-2.15008 125.539L-2.32471 125.628L-2.54218 125.849L-2.51993 125.893L-2.88896 126.356C-2.91751 126.443 -2.96803 126.524 -3.04052 126.598C-3.113 126.671 -3.15639 126.73 -3.17066 126.774C-3.19977 126.789 -3.2286 126.84 -3.25715 126.928L-3.56193 127.193C-3.6778 127.326 -3.9241 127.598 -4.30081 128.01C-4.64843 128.407 -4.84392 128.635 -4.8873 128.694C-4.87192 128.796 -4.93727 128.847 -5.08336 128.848C-5.12729 128.834 -5.1564 128.849 -5.17067 128.893C-5.19923 128.981 -5.27199 129.018 -5.38897 129.004C-5.50484 129.137 -5.55536 129.217 -5.54053 129.246C-5.53942 129.393 -5.58994 129.473 -5.69209 129.489L-5.86673 129.578C-5.83707 129.636 -5.88045 129.695 -5.99687 129.754L-6.47546 130.218L-7.65094 131.257C-7.69432 131.315 -7.71601 131.345 -7.71601 131.345C-7.70118 131.374 -7.72287 131.403 -7.78108 131.433C-7.81019 131.448 -7.92634 131.544 -8.12953 131.72C-8.30361 131.882 -8.5867 132.118 -8.97881 132.428L-9.50188 132.805C-9.77701 133.128 -10.3361 133.578 -11.179 134.154L-11.7886 134.685L-12.8998 135.526L-13.9246 136.213L-14.0992 136.302L-14.1643 136.39C-14.2659 136.479 -14.4331 136.582 -14.6659 136.701L-15.1462 136.945C-15.4224 137.123 -15.7423 137.323 -16.1059 137.544C-16.4694 137.766 -16.8404 137.974 -17.2188 138.166C-17.568 138.344 -17.7863 138.456 -17.8737 138.5L-19.2913 139.387C-19.3353 139.373 -19.6263 139.521 -20.1645 139.832C-20.7175 140.114 -21.4304 140.514 -22.303 141.032C-23.1465 141.535 -23.939 142.031 -24.6804 142.518L-25.2685 142.983C-25.5596 143.131 -26.025 143.405 -26.6648 143.804C-27.3046 144.204 -27.6536 144.418 -27.7118 144.448L-27.7554 144.47C-28.1036 144.794 -28.6558 145.185 -29.412 145.644L-29.4556 145.666L-29.823 146.348C-29.9229 146.656 -30.5514 147.581 -31.7085 149.124C-32.8364 150.652 -33.5311 151.519 -33.7925 151.726C-33.938 151.8 -34.1192 151.984 -34.3361 152.278C-35.6563 153.5 -36.6086 154.114 -37.1929 154.118L-37.632 154.012C-37.8956 153.926 -38.0134 153.803 -37.9854 153.642C-37.9574 153.481 -37.8122 153.37 -37.5497 153.31L-37.5282 153.244L-37.5505 153.2C-37.3808 152.454 -36.8614 151.603 -35.9921 150.647C-35.5291 150.044 -34.9204 149.404 -34.1659 148.726L-33.8174 148.439C-33.6867 148.335 -33.1856 147.952 -32.3141 147.288C-31.4283 146.58 -30.6803 145.997 -30.0702 145.539L-29.9401 145.363C-29.8818 145.334 -29.7303 145.091 -29.4854 144.637C-29.2839 144.241 -29.1394 144.02 -29.0521 143.976C-29.0082 143.99 -28.9791 143.975 -28.9648 143.931C-28.9653 143.858 -28.9516 143.741 -28.9236 143.58C-28.9094 143.537 -28.8879 143.471 -28.8594 143.383C-28.8457 143.266 -28.8317 143.185 -28.8174 143.141C-28.7888 143.053 -28.76 143.002 -28.7309 142.987L-28.5159 142.438C-28.4446 142.218 -28.3507 142.079 -28.2342 142.019C-28.1184 141.887 -28.0321 141.696 -27.9756 141.448C-27.9042 141.228 -27.8394 141.103 -27.7812 141.074C-27.6648 141.014 -27.6 140.89 -27.5868 140.7L-27.222 139.689C-27.021 139.22 -26.9427 138.942 -26.9872 138.854C-27.0021 138.825 -26.9299 138.715 -26.7706 138.524C-26.6547 138.391 -26.4606 137.981 -26.1883 137.292C-25.8017 136.252 -25.3353 135.153 -24.7889 133.995L-24.1654 132.412C-24.1083 132.236 -24.0652 132.141 -24.0361 132.126C-23.9636 132.052 -23.9059 131.95 -23.8631 131.818L-23.3458 130.675L-23.0444 129.971L-23.6556 130.282C-24.8199 130.876 -25.7304 131.211 -26.3872 131.289C-28.5313 131.758 -30.0391 131.354 -30.9108 130.075L-31.2864 129.661L-31.3524 129.64L-31.5756 129.093C-31.9926 128.059 -32.1621 126.899 -32.0842 125.613L-32.0241 124.867L-31.5135 122.847C-31.4004 122.35 -31.2725 121.881 -31.1297 121.442C-30.9578 120.988 -30.8002 120.578 -30.6569 120.211C-30.4845 119.83 -30.3769 119.574 -30.3341 119.442C-30.3055 119.354 -29.7723 118.386 -28.7345 116.537L-28.4964 116.141L-28.1719 115.59L-27.8902 115.172L-27.5657 114.622L-27.0896 113.829L-25.8977 112.067C-25.8834 112.023 -25.84 111.964 -25.7675 111.891C-25.7099 111.788 -25.6739 111.715 -25.6596 111.671L-25.5954 111.473L-25.3128 111.164C-25.2403 111.09 -25.1173 110.936 -24.9438 110.701C-24.756 110.422 -24.5825 110.187 -24.4232 109.996C-24.2497 109.761 -24.1412 109.614 -24.0979 109.555L-23.8796 109.444C-23.8356 109.458 -23.8065 109.443 -23.7922 109.399C-23.7785 109.282 -23.7058 109.245 -23.5739 109.288C-23.4729 109.127 -23.4298 109.031 -23.4446 109.002C-23.4891 108.915 -23.4532 108.842 -23.3367 108.782C-23.2203 108.723 -23.1695 108.679 -23.1843 108.65C-23.2288 108.562 -23.1783 108.482 -23.0328 108.407C-22.9746 108.378 -22.9021 108.304 -22.8153 108.187C-22.7286 108.069 -22.6561 107.995 -22.5979 107.966L-21.5542 106.884C-21.4817 106.811 -21.4455 106.774 -21.4455 106.774C-21.4603 106.745 -21.4677 106.73 -21.4677 106.73C-21.4534 106.686 -21.3592 106.583 -21.1852 106.421C-20.9968 106.215 -20.6994 105.935 -20.2931 105.582L-19.8581 105.14C-19.7999 105.11 -19.5967 104.934 -19.2486 104.609C-18.8861 104.241 -18.5451 103.939 -18.2255 103.703L-17.6604 103.085L-16.5937 102.157L-15.7007 101.427L-14.1529 100.363C-14.1238 100.348 -14.1092 100.341 -14.1092 100.341L-14.0442 100.253L-13.8695 100.164C-13.8261 100.105 -13.7317 100.039 -13.5862 99.9645L-13.1281 99.6762L-13.1067 99.6103C-13.0776 99.5954 -13.0485 99.5806 -13.0194 99.5658L-12.8448 99.4768L-11.4922 98.6776L-11.2088 98.4782L-10.2928 97.9015L-10.1182 97.8125L-10.0522 97.8339L-9.72522 97.6123L-9.46409 97.3693C-9.42016 97.3836 -9.31087 97.3462 -9.13623 97.2572L-8.78696 97.0793L-8.525 96.9458L-8.26305 96.8123L-7.95743 96.6566C-7.89977 96.5539 -7.68862 96.4646 -7.32396 96.3888L-6.66907 96.0551C-6.29013 95.9354 -5.88922 95.8228 -5.46635 95.7173L-5.37903 95.6728C-4.82602 95.391 -3.80425 95.2737 -2.31373 95.3208C-2.25497 95.3642 -2.01332 95.4427 -1.58878 95.5564C-1.13514 95.6552 -0.827582 95.7551 -0.666111 95.8562C-0.124044 96.0566 0.661062 96.5181 1.68921 97.2408C2.46801 97.8339 3.11611 98.5302 3.63351 99.3298ZM4.00441 102L3.0676 99.8381L2.73558 99.4023L1.67445 98.1832L1.60854 98.1618L1.5863 98.1181C1.32046 97.7403 0.791282 97.3133 -0.00123958 96.8372C-0.779488 96.3172 -1.59973 96.0386 -2.46197 96.0013C-3.58727 95.9514 -4.37591 95.9866 -4.82789 96.1069L-4.89213 96.3046C-5.06787 96.2475 -5.1703 96.2264 -5.19941 96.2412L-5.33038 96.3079L-6.29172 96.6878L-5.81147 96.4431C-6.67149 96.698 -7.23248 96.8921 -7.49443 97.0256L-7.51585 97.0915C-7.66193 97.0926 -7.74925 97.1371 -7.7778 97.225C-7.79208 97.2689 -7.80663 97.2763 -7.82146 97.2472C-7.86595 97.1599 -7.97524 97.1973 -8.14932 97.3593L-9.08758 97.8924C-9.14579 97.922 -9.23311 97.9665 -9.34954 98.0258C-9.43686 98.0703 -9.53159 98.1003 -9.63374 98.1156L-10.5934 98.7146L-10.9427 98.8926L-11.3134 99.1364L-11.3793 99.115C-11.4666 99.1595 -11.6047 99.2482 -11.7936 99.3811C-11.9683 99.4701 -12.1138 99.5443 -12.2302 99.6036C-12.3175 99.6481 -12.4919 99.7736 -12.7533 99.9801C-13.0004 100.143 -13.1968 100.261 -13.3423 100.335C-13.6916 100.513 -13.9096 100.661 -13.9963 100.778L-14.5194 101.155C-15.7545 102.041 -16.5458 102.682 -16.8935 103.08C-16.9077 103.123 -17.1617 103.345 -17.6554 103.743C-18.4978 104.392 -19.2378 105.062 -19.8754 105.754L-22.1365 108.116C-22.9191 108.954 -23.2955 109.403 -23.2658 109.461L-23.2873 109.527C-23.3455 109.557 -23.3963 109.601 -23.4396 109.66C-23.4687 109.674 -23.5195 109.719 -23.592 109.792C-23.6645 109.866 -23.7587 109.969 -23.8746 110.101C-23.9613 110.219 -24.0481 110.336 -24.1349 110.454L-24.807 111.401C-24.8938 111.519 -24.8932 111.592 -24.8053 111.62C-24.7905 111.649 -24.7977 111.671 -24.8268 111.686C-24.8416 111.657 -24.9072 111.672 -25.0236 111.732L-25.6299 112.7L-26.106 113.493C-26.1636 113.596 -26.2575 113.735 -26.3877 113.911C-26.5036 114.044 -26.5686 114.132 -26.5829 114.176L-26.6471 114.374C-26.7202 114.374 -26.7853 114.462 -26.8424 114.638L-26.9503 114.858C-26.9942 114.844 -27.0379 114.866 -27.0812 114.925C-27.1103 114.94 -27.132 114.969 -27.1463 115.013L-27.4049 115.585L-27.9049 116.114C-28.006 116.276 -28.1935 116.591 -28.4675 117.061C-28.7415 117.53 -28.9217 117.861 -29.0079 118.051C-29.0798 118.198 -29.2237 118.491 -29.4395 118.931C-29.641 119.327 -29.8134 119.708 -29.9567 120.074C-30.0858 120.397 -30.2505 120.829 -30.4509 121.371C-30.6513 121.913 -30.8586 122.514 -31.0727 123.173C-31.344 124.008 -31.512 124.973 -31.5767 126.069C-31.6123 127.151 -31.5255 128.005 -31.3162 128.631C-31.1514 129.171 -30.6645 129.802 -29.8555 130.527C-29.2672 131.034 -28.5574 131.203 -27.7259 131.036C-27.682 131.051 -27.638 131.065 -27.5941 131.079L-27.5282 131.101L-26.4556 130.939C-25.7554 130.802 -25.34 130.682 -25.2093 130.579C-24.117 130.133 -23.3234 129.783 -22.8286 129.531L-21.9885 127.618C-21.9171 127.398 -21.8523 127.274 -21.7941 127.244C-21.7068 127.2 -21.6422 127.038 -21.6005 126.761C-21.5862 126.717 -21.5289 126.577 -21.4284 126.343C-21.3136 126.064 -21.2274 125.874 -21.1697 125.771L-20.6533 124.518C-20.5243 124.196 -20.3738 123.807 -20.202 123.353C-20.0449 122.87 -19.909 122.489 -19.7943 122.211L-19.6221 121.793C-19.4475 121.704 -18.8177 119.99 -17.7327 116.651L-16.9816 114.563C-16.8943 114.519 -16.844 114.401 -16.8309 114.211C-16.8171 114.094 -16.7532 113.86 -16.639 113.509L-16.2955 112.564C-16.1522 112.197 -16.0586 112.021 -16.0146 112.036C-15.9855 112.021 -15.9641 111.955 -15.9504 111.838C-15.9658 111.736 -15.8233 111.26 -15.523 110.41C-15.2083 109.517 -14.9288 108.806 -14.6845 108.278C-14.584 108.044 -14.4909 107.795 -14.4053 107.531C-14.3916 107.414 -14.341 107.333 -14.2537 107.289C-14.2103 107.23 -14.1672 107.135 -14.1244 107.003L-14.0816 106.871C-13.9937 106.9 -13.9289 106.775 -13.8872 106.497C-13.6577 105.94 -13.3037 105.412 -12.8254 104.911C-12.3328 104.367 -11.9987 104.123 -11.8229 104.181L-11.6697 104.157C-11.5676 104.142 -11.4434 104.134 -11.2974 104.133C-11.137 104.088 -10.9909 104.087 -10.8591 104.129C-10.0825 104.43 -9.72195 104.778 -9.77739 105.173C-9.80594 105.261 -9.87843 105.335 -9.99486 105.394C-10.1113 105.453 -10.2285 105.403 -10.3466 105.243C-11.0107 104.372 -11.6766 104.216 -12.3444 104.776C-12.8672 105.189 -13.2861 105.806 -13.6013 106.627C-13.6156 106.67 -13.6661 106.751 -13.7529 106.869L-14.0972 107.704C-14.1823 108.041 -14.3898 108.605 -14.7198 109.396L-15.2148 110.583C-15.6448 111.682 -15.8889 112.247 -15.9471 112.276C-16.0053 112.306 -16.0264 112.408 -16.0105 112.584C-15.9945 112.759 -16.0448 112.876 -16.1612 112.935C-16.2776 112.995 -16.299 113.061 -16.2254 113.133C-16.181 113.22 -16.1875 113.315 -16.2452 113.418C-16.5483 113.902 -16.6628 114.217 -16.5887 114.363C-16.5738 114.392 -16.5955 114.421 -16.6537 114.451C-16.7559 114.466 -16.8347 114.672 -16.8901 115.067C-16.9598 115.505 -17.102 116.018 -17.3167 116.604L-18.6477 120.252L-18.8618 120.911C-19.1605 121.979 -19.4332 122.632 -19.6797 122.867C-19.7813 122.956 -19.8241 123.087 -19.8082 123.263C-19.8071 123.409 -19.8205 123.562 -19.8485 123.723L-21.2479 127.021C-21.2765 127.109 -21.3344 127.175 -21.4217 127.219C-21.4657 127.205 -21.5307 127.293 -21.6169 127.484C-21.6889 127.63 -21.71 127.733 -21.6804 127.791C-21.621 127.908 -21.7495 128.303 -22.0658 128.977C-22.0801 129.021 -22.1018 129.051 -22.1309 129.066L-21.7157 128.909C-21.6871 128.821 -21.0919 128.335 -19.9298 127.449L-19.2329 126.874C-18.2159 126.136 -17.3312 125.282 -16.5789 124.312L-15.7313 123.385L-15.34 122.966C-15.0061 122.686 -14.7669 122.435 -14.6225 122.215L-14.3622 121.863C-13.8257 121.333 -13.5723 121.038 -13.6019 120.98L-13.2766 120.54C-13.2623 120.496 -13.1752 120.415 -13.0154 120.296C-12.8556 120.178 -12.7615 120.075 -12.7329 119.988C-12.633 119.68 -12.3724 119.364 -11.9512 119.039L-11.8005 118.688L-11.6917 118.577C-11.6335 118.547 -11.6118 118.518 -11.6267 118.489C-11.5536 118.488 -11.4303 118.371 -11.2568 118.136L-11.0188 117.739C-10.7574 117.533 -10.5399 117.312 -10.3664 117.077C-10.2071 116.886 -9.63684 115.99 -8.65554 114.39C-8.33815 113.862 -8.13662 113.466 -8.05096 113.202C-8.22671 113.145 -8.24979 112.992 -8.1202 112.743C-7.85824 112.609 -7.63939 112.571 -7.46364 112.628C-7.0836 112.655 -7.26919 113.226 -8.0204 114.342L-8.69255 115.289C-10.3987 117.625 -11.7007 119.315 -12.5986 120.359L-13.2287 121.065C-13.2282 121.138 -13.3075 121.27 -13.4668 121.461C-13.6409 121.623 -13.757 121.719 -13.8152 121.749C-13.8729 121.852 -14.0033 121.991 -14.2065 122.168L-14.6184 122.763C-14.8221 122.867 -14.9448 123.058 -14.9866 123.336L-15.0953 123.446C-15.1974 123.461 -15.4586 123.704 -15.8787 124.175C-16.1681 124.543 -16.712 125.058 -17.5105 125.721L-18.1406 126.427C-18.3581 126.648 -18.4959 126.774 -18.5541 126.803L-18.6415 126.848C-18.6848 126.906 -18.7282 126.965 -18.7716 127.024C-18.8298 127.054 -18.9097 127.113 -19.0113 127.201C-19.0838 127.275 -19.1563 127.348 -19.2288 127.422C-19.3452 127.481 -19.5632 127.629 -19.8828 127.865C-20.1733 128.086 -20.3839 128.249 -20.5146 128.352L-21.8005 129.282C-21.9021 129.371 -22.0984 129.489 -22.3895 129.637L-23.4446 132.1L-25.834 137.772C-25.9054 137.991 -26.0704 138.387 -26.329 138.959L-26.6527 139.619L-27.0827 140.718L-27.8149 142.411L-28.4186 143.708C-28.5186 144.016 -28.6838 144.375 -28.9145 144.786C-28.8711 144.727 -28.8057 144.675 -28.7184 144.631C-28.6311 144.586 -28.3914 144.409 -27.9993 144.099C-27.5781 143.775 -27.1275 143.472 -26.6475 143.191C-26.1824 142.88 -25.6513 142.591 -25.0544 142.324L-24.7488 142.168L-21.0625 139.905C-20.1607 139.372 -19.6442 139.091 -19.513 139.06L-18.3572 138.307L-15.8472 136.973L-15.8695 136.929C-15.8404 136.914 -15.7967 136.892 -15.7385 136.862C-15.6951 136.804 -15.6589 136.767 -15.6298 136.752L-15.0408 136.397C-13.5871 135.436 -12.7587 134.867 -12.5555 134.691C-12.4688 134.573 -12.1928 134.359 -11.7277 134.049C-10.6963 133.267 -9.9267 132.654 -9.41872 132.212L-6.95904 130.024C-6.1029 129.258 -5.68966 128.846 -5.71933 128.788C-5.73416 128.758 -5.72702 128.737 -5.69791 128.722C-5.6397 128.692 -5.59604 128.67 -5.56694 128.655C-5.55266 128.611 -5.50928 128.552 -5.43679 128.479C-5.3643 128.405 -5.26271 128.317 -5.13201 128.213C-5.01614 128.081 -4.91482 127.956 -4.82805 127.839L-4.06776 126.956C-3.96616 126.868 -3.94475 126.802 -4.00352 126.758C-4.01835 126.729 -4.01121 126.707 -3.9821 126.693C-3.96727 126.722 -3.90164 126.707 -3.78522 126.647L-3.11308 125.7L-2.93927 125.501C-2.89589 125.443 -2.80171 125.34 -2.65673 125.192C-2.48265 125.03 -2.38133 124.905 -2.35278 124.817C-2.06283 124.523 -1.91841 124.303 -1.91951 124.157L-1.46234 123.759C-1.11417 123.435 -0.659493 122.708 -0.0982996 121.579C-0.0400862 121.549 0.0101571 121.432 0.0524303 121.227C0.123809 121.008 0.18119 120.868 0.224571 120.81C0.572737 120.486 0.998034 119.737 1.50046 118.565L2.53331 116.059C2.9067 115.208 3.09284 114.71 3.09174 114.564L3.11315 114.498L3.32479 113.511L3.51502 112.589C3.5584 112.53 3.51419 112.479 3.38238 112.436C3.39665 112.392 3.41835 112.363 3.44745 112.348C3.5496 112.333 3.6004 112.289 3.59984 112.216L3.70275 111.338L3.762 110.483C3.77628 110.439 3.79028 110.359 3.804 110.242C3.81772 110.125 3.8243 110.03 3.82375 109.957C3.8232 109.884 3.83747 109.84 3.86658 109.825L3.88716 109.649C4.00358 109.59 4.02472 109.488 3.95057 109.342L3.90524 109.145C3.87558 109.087 3.91155 109.014 4.01315 108.925L4.00899 108.377L4.04766 107.698L4.04267 107.04L4.12749 106.667L4.125 106.339C4.1541 106.324 4.16041 106.192 4.14391 105.944C4.1417 105.652 4.13206 105.345 4.11501 105.024C4.11224 104.659 4.11772 104.417 4.13144 104.3L4.15202 104.125C4.31016 103.788 4.3085 103.569 4.14703 103.468C4.07343 103.395 4.06408 103.125 4.11896 102.657L4.13954 102.482C4.08078 102.438 4.02173 102.358 3.96241 102.242C3.9322 102.111 3.9462 102.03 4.00441 102ZM-31.4128 147.653C-31.2821 147.55 -31.0364 147.205 -30.6756 146.618L-30.8502 146.707C-31.5191 147.121 -31.9187 147.416 -32.0488 147.593L-33.3338 148.632C-34.0456 149.178 -34.5821 149.708 -34.9434 150.222C-34.9868 150.281 -35.1027 150.413 -35.291 150.619C-35.4503 150.811 -35.595 150.994 -35.7251 151.171L-35.9426 151.391C-36.0008 151.421 -36.1598 151.649 -36.4195 152.074C-36.6935 152.544 -36.8519 152.845 -36.8948 152.976C-36.9519 153.152 -36.9727 153.291 -36.9574 153.393L-36.7613 153.238C-36.6449 153.179 -36.5284 153.12 -36.412 153.06C-35.859 152.779 -35.4016 152.417 -35.0397 151.976L-34.1484 151.027C-33.8584 150.733 -33.3587 150.166 -32.6492 149.328L-31.9112 148.402L-31.4128 147.653ZM8.66198 115.191C8.1529 115.487 7.75255 115.672 7.46094 115.748C6.67341 115.929 6.20355 115.618 6.05136 114.816C6.00687 114.729 5.99807 114.532 6.02496 114.225C6.11879 113.113 6.58608 112.124 7.42683 111.255C7.99191 110.638 8.37743 110.423 8.58339 110.611C8.64216 110.655 8.6213 110.794 8.52081 111.028C8.44943 111.248 8.29843 111.563 8.0678 111.974C7.66475 112.766 7.26003 113.339 6.85365 113.692C6.63619 113.913 6.52801 114.097 6.52912 114.243C6.42919 114.55 6.52642 114.849 6.82081 115.139C6.98339 115.386 7.41395 115.332 8.1125 114.976C9.52332 114.147 11.0618 112.813 12.7279 110.974L13.8572 109.629L14.9866 108.283C15.1315 108.136 15.2408 108.099 15.3144 108.171C15.3583 108.186 15.3443 108.266 15.2724 108.413C15.229 108.472 15.1857 108.53 15.1423 108.589L15.0558 108.743C14.723 109.169 14.4407 109.515 14.209 109.78C14.0064 110.029 13.7746 110.294 13.5138 110.574C13.282 110.838 13.0649 111.096 12.8622 111.346C11.5448 112.934 10.1447 114.215 8.66198 115.191ZM6.73993 113.145L7.10979 112.792C7.18228 112.718 7.24735 112.63 7.30501 112.527C7.724 111.911 7.96918 111.492 8.04056 111.273C8.02573 111.244 7.94583 111.303 7.80085 111.45C7.67015 111.553 7.55428 111.685 7.45324 111.847C7.32254 111.95 7.16356 112.178 6.97631 112.53C6.81817 112.867 6.73938 113.072 6.73993 113.145ZM22.2537 108.265C21.6573 108.606 21.2133 108.814 20.9217 108.889C19.9447 109.13 19.3498 108.718 19.1372 107.653C19.0768 107.391 19.0175 107.275 18.9593 107.304C18.9444 107.275 18.8791 107.327 18.7632 107.459C18.5178 107.841 18.0389 108.268 17.3266 108.741C17.0938 108.86 16.8969 108.905 16.736 108.877C16.5751 108.849 16.5089 108.791 16.5374 108.703L16.147 109.232C16.075 109.379 15.9886 109.533 15.8875 109.694C15.3823 110.502 15.0418 110.877 14.8661 110.82C14.7343 110.777 14.6599 110.595 14.6428 110.273C14.6823 109.703 14.8734 108.891 15.216 107.837C15.2594 107.778 15.3321 107.741 15.4343 107.725C15.5655 107.695 15.6386 107.695 15.6534 107.724L15.7202 107.855C15.8525 107.971 15.7754 108.395 15.4888 109.127L15.4031 109.391C15.447 109.405 15.4907 109.383 15.5341 109.324L15.5992 109.236L15.7293 109.06L15.7721 108.928L16.2268 108.201L16.3561 107.916C16.5143 107.578 16.7032 107.445 16.9229 107.517C17.0107 107.545 17.0701 107.662 17.1008 107.866C17.0877 108.056 17.1322 108.143 17.2343 108.128C17.3656 108.098 17.7286 107.803 18.3233 107.243C18.9032 106.654 19.2074 106.316 19.236 106.228C19.409 105.92 19.6124 105.78 19.8464 105.807C20.0221 105.864 20.0598 106.01 19.9593 106.245C19.7144 106.699 19.674 107.16 19.8383 107.626C19.9723 107.961 20.12 108.179 20.2815 108.28C20.5605 108.468 21.0347 108.391 21.7042 108.05C22.9404 107.31 24.464 105.948 26.2751 103.962L26.7537 103.498L27.883 102.152L28.0354 102.02L28.3608 101.579C28.3899 101.564 28.4261 101.527 28.4695 101.469C28.5129 101.41 28.5491 101.373 28.5782 101.358L28.7092 101.291C28.841 101.334 28.8998 101.378 28.8855 101.422C28.9004 101.451 28.8498 101.531 28.734 101.664L28.6475 101.818C28.0253 102.611 27.2941 103.479 26.4539 104.42C25.1365 106.008 23.7364 107.29 22.2537 108.265ZM30.5221 102.842C30.3765 102.917 30.223 102.903 30.0616 102.802C29.871 102.716 29.7603 102.571 29.7295 102.366C29.6554 102.221 29.6249 102.053 29.6381 101.863L29.6133 101.491C29.5985 101.462 29.5477 101.506 29.4609 101.623C29.4033 101.726 29.3313 101.873 29.2451 102.063C29.1441 102.225 29.0576 102.379 28.9857 102.525C28.6117 103.303 28.2501 103.78 27.9008 103.958C27.6389 104.092 27.4634 104.071 27.3744 103.896C27.3299 103.809 27.3651 103.626 27.4798 103.348C27.7813 102.644 28.2283 101.866 28.8208 101.015C29.0954 100.618 29.2689 100.383 29.3414 100.309C29.443 100.221 29.5306 100.213 29.6042 100.286C29.6338 100.344 29.7214 100.336 29.867 100.262C29.9834 100.202 30.071 100.194 30.1297 100.238C30.2028 100.237 30.2399 100.31 30.241 100.456C30.2273 100.573 30.2207 100.668 30.2212 100.741C30.2218 100.814 30.2006 100.916 30.1578 101.048C30.0019 101.678 30.0783 102.115 30.3869 102.361C30.4166 102.42 30.4751 102.426 30.5624 102.382C30.6788 102.323 30.7733 102.256 30.8458 102.183L30.9982 102.05C31.4627 101.667 32.4767 100.527 34.0402 98.6302L34.1052 98.542L34.2362 98.4753L34.3021 98.4967C34.3461 98.511 34.3829 98.5472 34.4125 98.6055C34.4273 98.6346 34.4276 98.6711 34.4133 98.715L32.5032 101.118L31.1769 102.509L31.046 102.576C30.8862 102.694 30.7115 102.783 30.5221 102.842ZM27.7879 103.521L28.0054 103.3C28.4826 102.653 28.7569 102.22 28.8283 102.001C28.8854 101.825 29.0224 101.59 29.2393 101.296C29.3843 101.149 29.4419 101.046 29.4123 100.988C29.3678 100.901 29.2228 101.048 28.9773 101.43C28.4853 102.047 28.1465 102.641 27.9609 103.213L27.7879 103.521ZM38.8579 98.5952C38.3603 98.4821 38.131 98.104 38.17 97.4608C38.1969 97.1538 38.21 96.9638 38.2095 96.8908C38.1227 97.0083 37.9349 97.2873 37.6461 97.7278C36.9833 98.9454 36.229 99.6597 35.3833 99.8706C34.9456 99.947 34.6306 99.8325 34.4383 99.5272C34.0248 98.9313 33.9564 98.5812 34.2331 98.4769C34.2914 98.4472 34.3864 98.4538 34.5182 98.4966C34.6939 98.5537 34.7898 98.6699 34.8057 98.8451C34.8205 98.8742 34.8137 98.9327 34.7851 99.0205C34.7566 99.1084 34.7497 99.1669 34.7645 99.196C34.8832 99.4288 35.0156 99.5447 35.1616 99.5436C35.7026 99.5979 36.4854 98.7958 37.5101 97.1371C37.7556 96.7554 37.9431 96.4399 38.0727 96.1906C38.2165 95.8973 38.3027 95.7067 38.3313 95.6188C38.3599 95.531 38.3958 95.4576 38.4392 95.3989C38.5117 95.3253 38.5987 95.2443 38.7003 95.1558C38.8601 95.0378 39.0276 94.9707 39.2028 94.9548C39.35 95.0998 39.3951 95.2601 39.338 95.4359C39.0628 95.7594 38.8767 96.2575 38.7795 96.9303C38.6675 97.5739 38.7511 97.9897 39.0301 98.1775C39.2651 98.351 39.7882 97.9745 40.5993 97.048C41.3956 96.0923 42.046 95.1743 42.5507 94.2939L42.6157 94.2057L42.7467 94.139L42.8126 94.1604C42.8857 94.1598 42.937 94.1887 42.9667 94.2469C42.9815 94.276 42.9672 94.3199 42.9238 94.3787L41.0153 97.001C40.1625 98.2054 39.4434 98.7368 38.8579 98.5952ZM42.8017 96.6957L42.5595 96.5441C42.442 96.4573 42.3453 96.2316 42.2695 95.867C42.2393 95.7357 42.2596 95.5237 42.3304 95.231C42.4012 94.9383 42.5009 94.5942 42.6294 94.1988C42.7579 93.8033 42.8218 93.5691 42.8213 93.4961C42.9075 93.3055 42.9945 93.2245 43.0824 93.253C43.2576 93.2371 43.3029 93.434 43.2184 93.8437C42.8933 95.2925 42.7602 96.0386 42.819 96.0819C42.9953 96.2121 43.2419 95.9765 43.5587 95.3751C43.8755 94.7737 44.0902 94.1877 44.2028 93.6171L44.2234 93.4416L44.3518 93.0462L44.3724 92.8707C44.4438 92.651 44.5451 92.5261 44.6764 92.4958C44.9098 92.4502 44.9205 92.9031 44.7086 93.8543C44.6943 93.8982 44.6801 93.9422 44.6658 93.9861C44.539 94.6006 44.5783 94.9656 44.7837 95.0809C44.8133 95.1391 44.8792 95.1605 44.9814 95.1451C45.0687 95.1006 45.134 95.049 45.1774 94.9903L45.2862 94.8799C45.7507 94.4965 46.7793 93.3491 48.3718 91.4378L48.4369 91.3497L48.5242 91.3052L48.6338 91.3044C48.7068 91.3038 48.7436 91.34 48.7442 91.4131C48.759 91.4422 48.7447 91.4861 48.7014 91.5449L48.3109 92.0738L46.8348 93.9258L45.5086 95.3164L45.3776 95.3832C45.0728 95.6485 44.8252 95.738 44.6346 95.6518C44.4292 95.5365 44.2963 95.3476 44.2358 95.0851L44.1469 94.9104L44.1254 94.9763L43.9533 95.394C43.6804 96.0097 43.3839 96.3991 43.0637 96.5622L42.8017 96.6957ZM113.08 43.5639C113.569 44.3783 113.896 45.1647 114.062 45.9231L114.088 46.4051C114.296 46.8125 114.381 47.4474 114.343 48.3096L114.436 48.9225L114.525 49.0972C114.437 49.0686 114.401 49.1785 114.418 49.4267C114.403 49.4706 114.411 49.5582 114.442 49.6895C114.428 49.8065 114.421 49.9015 114.422 49.9745C114.442 50.7341 114.373 51.2094 114.214 51.4005L114.261 51.8165L114.134 52.4311L114.181 52.8471L114.053 53.3521L114.082 54.2723L113.825 55.0631L113.788 55.9619C113.759 56.0498 113.738 56.1522 113.725 56.2692C113.681 56.3279 113.667 56.3719 113.682 56.401C113.711 56.4592 113.726 56.5248 113.727 56.5979L113.641 56.8615C113.56 57.7094 113.419 58.2949 113.216 58.6178C113.158 58.6475 113.122 58.6843 113.108 58.7282C113.108 58.7282 113.064 58.7505 112.977 58.795C113.021 58.8092 113.007 58.8897 112.935 59.0363L112.913 59.1022C113.017 59.2329 113.047 59.3277 113.003 59.3864C112.974 59.4013 112.923 59.4455 112.851 59.5191L112.786 59.6072C112.786 59.6072 112.8 59.5998 112.829 59.585C112.815 59.6289 112.794 59.6948 112.765 59.7827L112.572 60.2663L112.077 61.4534C112.048 61.5413 112.041 61.5998 112.056 61.6289C112.085 61.614 112.092 61.6286 112.078 61.6725C112.064 61.7165 112.021 61.8483 111.95 62.068C111.863 62.2585 111.712 62.5373 111.496 62.9041L111.192 63.279C111.149 63.3377 111.055 63.5503 110.912 63.9166C110.798 64.2681 110.654 64.5979 110.481 64.906L110.114 65.5881L109.465 66.6888L108.901 67.5258L107.947 68.7821C107.917 68.797 107.91 68.8189 107.925 68.848C107.925 68.848 107.933 68.8626 107.947 68.8917L107.751 69.0466C107.635 69.179 107.585 69.2597 107.6 69.2888L107.274 69.62C107.274 69.62 107.288 69.6491 107.318 69.7073L107.297 69.7732L107.122 69.8622L106.905 70.083L106.927 70.1266L106.558 70.5896C106.529 70.6775 106.479 70.7582 106.406 70.8318C106.334 70.9054 106.29 70.9642 106.276 71.0081C106.247 71.023 106.218 71.0743 106.19 71.1622L105.885 71.4275C105.769 71.5598 105.523 71.832 105.146 72.2439C104.798 72.641 104.603 72.8689 104.559 72.9277C104.575 73.0299 104.509 73.0815 104.363 73.0826C104.319 73.0683 104.29 73.0831 104.276 73.1271C104.248 73.215 104.175 73.252 104.058 73.2383C103.942 73.3707 103.891 73.4514 103.906 73.4805C103.907 73.6266 103.857 73.7073 103.755 73.7227L103.58 73.8117C103.61 73.8699 103.566 73.9287 103.45 73.988L102.971 74.4518L101.796 75.4907C101.752 75.5495 101.731 75.5789 101.731 75.5789C101.746 75.608 101.724 75.6374 101.666 75.667C101.637 75.6819 101.52 75.7777 101.317 75.9546C101.143 76.1166 100.86 76.3525 100.468 76.6622L99.9449 77.0388C99.6697 77.3623 99.1107 77.8121 98.2677 78.3883L97.6582 78.9188L96.5469 79.76L95.5222 80.4471L95.3475 80.5361L95.2825 80.6242C95.1809 80.7127 95.0136 80.8162 94.7808 80.9348L94.3005 81.1795C94.0243 81.357 93.7044 81.5566 93.3409 81.7785C92.9773 82.0004 92.6064 82.2078 92.228 82.4006C91.8787 82.5785 91.6604 82.6897 91.5731 82.7342L90.1554 83.6216C90.1115 83.6073 89.8204 83.7556 89.2822 84.0665C88.7292 84.3482 88.0164 84.7481 87.1437 85.2661C86.3002 85.7692 85.5078 86.2646 84.7664 86.7524L84.1782 87.217C83.8872 87.3653 83.4218 87.6391 82.782 88.0384C82.1422 88.4378 81.7932 88.6522 81.735 88.6819L81.6913 88.7041C81.3432 89.0282 80.791 89.4195 80.0348 89.8782L79.9911 89.9004L79.6237 90.5825C79.5238 90.8901 78.8953 91.8153 77.7383 93.358C76.6103 94.886 75.9157 95.7532 75.6543 95.9597C75.5087 96.0339 75.3275 96.2179 75.1106 96.5117C73.7904 97.7343 72.8382 98.3478 72.2538 98.3523L71.8148 98.246C71.5511 98.1604 71.4333 98.0371 71.4613 97.8762C71.4893 97.7152 71.6346 97.6046 71.8971 97.5441L71.9185 97.4782L71.8963 97.4346C72.0659 96.6882 72.5854 95.8369 73.4547 94.8807C73.9176 94.2782 74.5263 93.6381 75.2809 92.9603L75.6293 92.6728C75.76 92.5695 76.2611 92.1859 77.1327 91.5218C78.0185 90.8139 78.7664 90.2311 79.3765 89.7736L79.5067 89.5973C79.5649 89.5676 79.7165 89.3254 79.9614 88.8707C80.1629 88.4747 80.3073 88.2545 80.3946 88.21C80.4386 88.2242 80.4677 88.2094 80.482 88.1655C80.4814 88.0924 80.4951 87.9755 80.5231 87.8145C80.5374 87.7706 80.5588 87.7047 80.5874 87.6168C80.6011 87.4998 80.6151 87.4194 80.6294 87.3754C80.6579 87.2876 80.6867 87.2362 80.7158 87.2214L80.9308 86.6719C81.0022 86.4522 81.0961 86.3127 81.2125 86.2534C81.3284 86.121 81.4146 85.9305 81.4711 85.6817C81.5425 85.462 81.6073 85.3373 81.6655 85.3077C81.782 85.2483 81.8468 85.1237 81.8599 84.9336L82.2248 83.9228C82.4258 83.4538 82.504 83.1756 82.4595 83.0883C82.4447 83.0592 82.5169 82.9491 82.6761 82.7579C82.792 82.6256 82.9861 82.215 83.2585 81.5263C83.645 80.4861 84.1115 79.3869 84.6579 78.2286L85.2813 76.6461C85.3385 76.4703 85.3816 76.375 85.4107 76.3602C85.4832 76.2866 85.5408 76.1839 85.5836 76.0521L86.1009 74.9086L86.4024 74.2051L85.7911 74.5165C84.6269 75.1097 83.7163 75.4454 83.0595 75.5234C80.9155 75.9926 79.4076 75.5876 78.536 74.3086L78.1603 73.8951L78.0944 73.8737L77.8711 73.3275C77.4542 72.2934 77.2847 71.1333 77.3626 69.8471L77.4227 69.1015L77.9333 67.0815C78.0464 66.584 78.1743 66.1155 78.317 65.6761C78.4889 65.2219 78.6465 64.8117 78.7898 64.4454C78.9622 64.0642 79.0699 63.8077 79.1127 63.6759C79.1412 63.588 79.6744 62.6198 80.7123 60.7711L80.9503 60.3748L81.2749 59.8245L81.5566 59.406L81.8811 58.8557L82.3572 58.0632L83.5491 56.301C83.5634 56.2571 83.6067 56.1983 83.6792 56.1247C83.7369 56.022 83.7729 55.9487 83.7871 55.9047L83.8514 55.707L84.1339 55.3981C84.2064 55.3245 84.3294 55.1702 84.5029 54.9351C84.6907 54.6561 84.8643 54.421 85.0235 54.2299C85.197 53.9948 85.3055 53.8479 85.3489 53.7891L85.5672 53.6779C85.6111 53.6922 85.6402 53.6774 85.6545 53.6334C85.6682 53.5164 85.741 53.4794 85.8728 53.5222C85.9738 53.3607 86.0169 53.2654 86.0021 53.2363C85.9576 53.149 85.9936 53.0757 86.11 53.0164C86.2264 52.957 86.2772 52.9128 86.2624 52.8837C86.2179 52.7964 86.2684 52.7157 86.414 52.6415C86.4722 52.6119 86.5447 52.5383 86.6314 52.4207C86.7182 52.3032 86.7907 52.2296 86.8489 52.1999L87.8926 51.1182C87.965 51.0446 88.0013 51.0078 88.0013 51.0078C87.9865 50.9787 87.979 50.9642 87.979 50.9642C87.9933 50.9202 88.0875 50.8172 88.2616 50.6552C88.4499 50.4493 88.7473 50.1694 89.1537 49.8157L89.5886 49.3741C89.6468 49.3445 89.85 49.1676 90.1982 48.8436C90.5606 48.4756 90.9017 48.1735 91.2213 47.9373L91.7863 47.3194L92.8531 46.3909L93.746 45.661L95.2938 44.5974C95.323 44.5825 95.3375 44.5751 95.3375 44.5751L95.4026 44.487L95.5772 44.398C95.6206 44.3392 95.7151 44.2728 95.8606 44.1986L96.3186 43.9103L96.34 43.8444C96.3691 43.8295 96.3982 43.8147 96.4273 43.7999L96.602 43.7109L97.9546 42.9117L98.2379 42.7123L99.154 42.1356L99.3286 42.0466L99.3945 42.068L99.7215 41.8464L99.9827 41.6034C100.027 41.6177 100.136 41.5803 100.311 41.4913L100.66 41.3134L100.922 41.1799L101.184 41.0464L101.489 40.8907C101.547 40.788 101.758 40.6987 102.123 40.6229L102.778 40.2892C103.157 40.1695 103.558 40.0569 103.98 39.9514L104.068 39.9069C104.621 39.6251 105.642 39.5078 107.133 39.5549C107.192 39.5983 107.433 39.6768 107.858 39.7905C108.312 39.8893 108.619 39.9892 108.781 40.0903C109.323 40.2907 110.108 40.7522 111.136 41.4749C111.915 42.068 112.563 42.7643 113.08 43.5639ZM113.451 46.2346L112.514 44.0722L112.182 43.6364L111.121 42.4173L111.055 42.3959L111.033 42.3522C110.767 41.9744 110.238 41.5474 109.446 41.0713C108.667 40.5513 107.847 40.2727 106.985 40.2354C105.859 40.1855 105.071 40.2207 104.619 40.341L104.555 40.5387C104.379 40.4816 104.276 40.4605 104.247 40.4753L104.116 40.542L103.155 40.9219L103.635 40.6772C102.775 40.9321 102.214 41.1262 101.952 41.2597L101.931 41.3256C101.785 41.3267 101.697 41.3712 101.669 41.4591C101.655 41.503 101.64 41.5104 101.625 41.4813C101.581 41.394 101.472 41.4314 101.297 41.5934L100.359 42.1265C100.301 42.1561 100.214 42.2006 100.097 42.2599C100.01 42.3044 99.9152 42.3344 99.813 42.3497L98.8533 42.9487L98.5041 43.1267L98.1334 43.3705L98.0675 43.3491C97.9801 43.3936 97.842 43.4823 97.6531 43.6152C97.4785 43.7042 97.3329 43.7784 97.2165 43.8377C97.1292 43.8822 96.9548 44.0077 96.6934 44.2142C96.4463 44.3768 96.25 44.4952 96.1045 44.5693C95.7552 44.7473 95.5372 44.895 95.4504 45.0126L94.9273 45.3891C93.6922 46.275 92.9009 46.9165 92.5533 47.3136C92.539 47.3576 92.285 47.5786 91.7913 47.9768C90.9489 48.626 90.2089 49.2964 89.5714 49.9879L87.3102 52.3498C86.5277 53.1885 86.1512 53.637 86.1809 53.6952L86.1595 53.7611C86.1013 53.7907 86.0505 53.8349 86.0071 53.8937C85.978 53.9085 85.9272 53.9528 85.8547 54.0264C85.7822 54.0999 85.688 54.2029 85.5722 54.3353C85.4854 54.4528 85.3986 54.5704 85.3119 54.6879L84.6397 55.6353C84.553 55.7528 84.5535 55.8259 84.6414 55.8544C84.6562 55.8835 84.6491 55.9055 84.62 55.9203C84.6052 55.8912 84.5395 55.9063 84.4231 55.9657L83.8169 56.9345L83.3408 57.727C83.2831 57.8297 83.1892 57.9692 83.0591 58.1455C82.9432 58.2779 82.8781 58.366 82.8638 58.41L82.7996 58.6077C82.7266 58.6082 82.6615 58.6964 82.6044 58.8721L82.4965 59.0921C82.4525 59.0778 82.4089 59.1001 82.3655 59.1588C82.3364 59.1737 82.3147 59.203 82.3004 59.247L82.0418 59.8187L81.5418 60.3484C81.4408 60.5099 81.2532 60.8254 80.9792 61.295C80.7052 61.7646 80.5251 62.0947 80.4389 62.2853C80.367 62.4319 80.2231 62.7252 80.0073 63.1651C79.8058 63.5611 79.6333 63.9422 79.49 64.3086C79.361 64.6309 79.1963 65.0632 78.9958 65.6052C78.7954 66.1473 78.5881 66.7479 78.374 67.4069C78.1028 68.2417 77.9348 69.2072 77.8701 70.3034C77.8344 71.3848 77.9213 72.2388 78.1306 72.8654C78.2954 73.4047 78.7823 74.0365 79.5913 74.7608C80.1795 75.2677 80.8894 75.4376 81.7208 75.2706C81.7648 75.2849 81.8087 75.2991 81.8526 75.3134L81.9185 75.3348L82.9911 75.1733C83.6913 75.0365 84.1068 74.9165 84.2375 74.8132C85.3298 74.3666 86.1233 74.0173 86.6182 73.7652L87.4583 71.8523C87.5297 71.6326 87.5945 71.5079 87.6527 71.4782C87.74 71.4337 87.8045 71.2726 87.8462 70.9947C87.8605 70.9507 87.9179 70.8115 88.0184 70.577C88.1331 70.2985 88.2193 70.108 88.277 70.0053L88.7934 68.7522C88.9225 68.4298 89.0729 68.0416 89.2448 67.5874C89.4018 67.1041 89.5377 66.7232 89.6525 66.4447L89.8246 66.0271C89.9992 65.9381 90.629 64.224 91.714 60.8848L92.4652 58.7973C92.5525 58.7528 92.6027 58.6355 92.6159 58.4455C92.6296 58.3285 92.6936 58.0943 92.8078 57.7428L93.1512 56.7979C93.2945 56.4316 93.3882 56.2555 93.4321 56.2698C93.4612 56.255 93.4826 56.1891 93.4963 56.0721C93.481 55.9699 93.6234 55.4941 93.9238 54.6444C94.2384 53.7509 94.5179 53.0402 94.7623 52.5124C94.8627 52.2779 94.9558 52.0288 95.0415 51.7652C95.0552 51.6482 95.1057 51.5675 95.193 51.523C95.2364 51.4642 95.2795 51.3689 95.3223 51.2371L95.3652 51.1053C95.453 51.1339 95.5178 51.0092 95.5596 50.7313C95.7891 50.1744 96.143 49.6458 96.6213 49.1454C97.1139 48.6011 97.4481 48.3576 97.6238 48.4147L97.777 48.3916C97.8792 48.3762 98.0033 48.3679 98.1494 48.3668C98.3097 48.3218 98.4558 48.3207 98.5876 48.3635C99.3642 48.6644 99.7248 49.0123 99.6694 49.4072C99.6408 49.495 99.5683 49.5686 99.4519 49.628C99.3355 49.6873 99.2182 49.637 99.1001 49.4772C98.4361 48.6057 97.7702 48.4501 97.1024 49.0103C96.5796 49.4233 96.1606 50.0401 95.8454 50.8606C95.8311 50.9046 95.7806 50.9853 95.6939 51.1028L95.3496 51.9382C95.2645 52.2748 95.0569 52.8389 94.7269 53.6303L94.2319 54.8174C93.802 55.9164 93.5579 56.4807 93.4997 56.5104C93.4415 56.54 93.4203 56.6424 93.4363 56.8176C93.4522 56.9928 93.402 57.1101 93.2855 57.1694C93.1691 57.2287 93.1477 57.2946 93.2213 57.3671C93.2658 57.4544 93.2592 57.5494 93.2015 57.6521C92.8984 58.1366 92.7839 58.4515 92.8581 58.5971C92.8729 58.6262 92.8512 58.6555 92.793 58.6852C92.6909 58.7006 92.6121 58.9057 92.5566 59.3006C92.4869 59.7394 92.3447 60.2518 92.13 60.8378L90.799 64.4857L90.5849 65.1447C90.2862 66.2135 90.0136 66.8657 89.767 67.1013C89.6654 67.1897 89.6226 67.3215 89.6385 67.4967C89.6396 67.6428 89.6262 67.7963 89.5982 67.9572L88.1988 71.255C88.1703 71.3428 88.1123 71.409 88.025 71.4535C87.9811 71.4392 87.916 71.5274 87.8298 71.7179C87.7579 71.8646 87.7367 71.967 87.7664 72.0252C87.8257 72.1417 87.6972 72.5371 87.3809 73.2115C87.3667 73.2555 87.345 73.2848 87.3159 73.2997L87.731 73.1431C87.7596 73.0552 88.3549 72.5686 89.5169 71.6832L90.2138 71.1082C91.2309 70.37 92.1156 69.5159 92.8679 68.546L93.7155 67.6192L94.1068 67.1998C94.4407 66.9197 94.6798 66.6695 94.8242 66.4493L95.0845 66.0967C95.621 65.5667 95.8745 65.2726 95.8448 65.2144L96.1702 64.7736C96.1845 64.7297 96.2715 64.6487 96.4313 64.5306C96.5911 64.4125 96.6853 64.3095 96.7138 64.2216C96.8138 63.9141 97.0743 63.598 97.4956 63.2734L97.6463 62.9216L97.755 62.8112C97.8132 62.7816 97.8349 62.7522 97.8201 62.7231C97.8931 62.7225 98.0164 62.6047 98.1899 62.3696L98.428 61.9734C98.6894 61.7669 98.9069 61.5461 99.0804 61.311C99.2396 61.1199 99.8099 60.2244 100.791 58.6245C101.109 58.0961 101.31 57.7002 101.396 57.4365C101.22 57.3794 101.197 57.2262 101.327 56.9769C101.589 56.8434 101.807 56.8052 101.983 56.8623C102.363 56.8887 102.178 57.4598 101.426 58.5758L100.754 59.5233C99.048 61.8591 97.746 63.5491 96.8481 64.5931L96.218 65.2992C96.2186 65.3722 96.1392 65.5043 95.98 65.6954C95.8059 65.8575 95.6897 65.9533 95.6315 65.983C95.5739 66.0857 95.4434 66.2255 95.2402 66.4023L94.8284 66.9971C94.6246 67.1009 94.5019 67.2918 94.4602 67.5697L94.3515 67.6801C94.2493 67.6955 93.9882 67.9385 93.5681 68.4092C93.2787 68.7766 92.7348 69.2921 91.9363 69.9556L91.3061 70.6616C91.0887 70.8824 90.9508 71.0076 90.8926 71.0373L90.8053 71.0818C90.7619 71.1405 90.7185 71.1993 90.6751 71.2581C90.6169 71.2877 90.537 71.3468 90.4354 71.4352C90.3629 71.5088 90.2905 71.5824 90.218 71.656C90.1015 71.7153 89.8835 71.8631 89.5639 72.0992C89.2734 72.3206 89.0628 72.4829 88.9321 72.5861L87.6462 73.5163C87.5446 73.6047 87.3483 73.7231 87.0572 73.8714L86.0021 76.3338L83.6127 82.0058C83.5414 82.2254 83.3764 82.6211 83.1177 83.1929L82.794 83.8528L82.3641 84.9517L81.6319 86.6447L81.0281 87.9422C80.9282 88.2497 80.7629 88.6089 80.5323 89.0197C80.5756 88.961 80.641 88.9093 80.7283 88.8649C80.8156 88.8204 81.0553 88.6432 81.4474 88.3335C81.8687 88.0089 82.3192 87.7059 82.7992 87.4247C83.2644 87.1144 83.7954 86.8255 84.3924 86.558L84.698 86.4023L88.3843 84.139C89.286 83.6062 89.8025 83.3247 89.9338 83.2945L91.0895 82.5407L93.5995 81.2068L93.5773 81.1631C93.6064 81.1483 93.65 81.126 93.7082 81.0964C93.7516 81.0376 93.7879 81.0008 93.817 80.986L94.406 80.6309C95.8596 79.6702 96.688 79.1015 96.8912 78.9246C96.978 78.8071 97.2539 78.5932 97.7191 78.2828C98.7504 77.5007 99.52 76.8886 100.028 76.4464L102.488 74.2583C103.344 73.4921 103.757 73.0799 103.727 73.0217C103.713 72.9926 103.72 72.9706 103.749 72.9558C103.807 72.9261 103.851 72.9039 103.88 72.889C103.894 72.8451 103.937 72.7863 104.01 72.7127C104.082 72.6391 104.184 72.5507 104.315 72.4475C104.431 72.3151 104.532 72.1901 104.619 72.0726L105.379 71.1903C105.481 71.1018 105.502 71.0359 105.443 70.9926C105.428 70.9635 105.436 70.9415 105.465 70.9267C105.479 70.9558 105.545 70.9406 105.662 70.8813L106.334 69.9339L106.507 69.7354C106.551 69.6766 106.645 69.5736 106.79 69.4264C106.964 69.2644 107.065 69.1395 107.094 69.0516C107.384 68.7572 107.528 68.537 107.527 68.3909L107.984 67.9929C108.333 67.6689 108.787 66.9423 109.348 65.8131C109.407 65.7834 109.457 65.6662 109.499 65.4613C109.571 65.2416 109.628 65.1024 109.671 65.0437C110.019 64.7196 110.445 63.9713 110.947 62.7987L111.98 60.2927C112.353 59.4425 112.54 58.9444 112.538 58.7983L112.56 58.7324L112.772 57.7446L112.962 56.8228C113.005 56.764 112.961 56.7132 112.829 56.6704C112.843 56.6265 112.865 56.5971 112.894 56.5823C112.996 56.5669 113.047 56.5227 113.047 56.4496L113.149 55.5723L113.209 54.7172C113.223 54.6732 113.237 54.5928 113.251 54.4758C113.264 54.3588 113.271 54.2638 113.27 54.1908C113.27 54.1177 113.284 54.0738 113.313 54.059L113.334 53.8835C113.45 53.8242 113.471 53.7217 113.397 53.5762L113.352 53.3793C113.322 53.3211 113.358 53.2478 113.46 53.1594L113.456 52.6115L113.494 51.9319L113.489 51.2745L113.574 50.9013L113.572 50.5727C113.601 50.5578 113.607 50.4263 113.591 50.1781C113.588 49.8859 113.579 49.5792 113.562 49.2579C113.559 48.8927 113.564 48.6516 113.578 48.5346L113.599 48.3591C113.757 48.0219 113.755 47.8028 113.594 47.7017C113.52 47.6292 113.511 47.359 113.566 46.8911L113.586 46.7157C113.528 46.6723 113.468 46.5924 113.409 46.4759C113.379 46.3447 113.393 46.2642 113.451 46.2346ZM78.0339 91.8875C78.1646 91.7843 78.4104 91.4391 78.7711 90.852L78.5965 90.941C77.9276 91.3551 77.5281 91.6503 77.3979 91.8266L76.1129 92.8663C75.4012 93.4123 74.8647 93.9423 74.5033 94.4564C74.46 94.5151 74.3441 94.6475 74.1557 94.8535C73.9965 95.0446 73.8518 95.2283 73.7216 95.4046L73.5042 95.6254C73.4459 95.6551 73.287 95.8827 73.0272 96.3084C72.7532 96.7779 72.5948 97.0786 72.552 97.2105C72.4949 97.3862 72.474 97.5251 72.4894 97.6273L72.6854 97.4724C72.8019 97.4131 72.9183 97.3538 73.0347 97.2944C73.5877 97.0127 74.0452 96.6513 74.4071 96.2102L75.2984 95.2612C75.5883 94.9668 76.088 94.4005 76.7975 93.5624L77.5356 92.6364L78.0339 91.8875ZM118.109 59.4247C117.6 59.7208 117.199 59.9064 116.908 59.9817C116.12 60.163 115.65 59.8524 115.498 59.0501C115.454 58.9628 115.445 58.7656 115.472 58.4586C115.566 57.3476 116.033 56.3579 116.874 55.4896C117.439 54.8717 117.824 54.6569 118.03 54.8453C118.089 54.8887 118.068 55.0276 117.968 55.2621C117.896 55.4818 117.745 55.797 117.515 56.2079C117.111 56.9998 116.707 57.5727 116.3 57.9264C116.083 58.1472 115.975 58.3306 115.976 58.4767C115.876 58.7842 115.973 59.083 116.268 59.373C116.43 59.6201 116.861 59.5657 117.559 59.2097C118.97 58.3809 120.509 57.0471 122.175 55.2083L123.304 53.8629L124.433 52.5176C124.578 52.3704 124.688 52.333 124.761 52.4055C124.805 52.4198 124.791 52.5003 124.719 52.6469C124.676 52.7057 124.632 52.7644 124.589 52.8232L124.503 52.9773C124.17 53.4035 123.887 53.7489 123.656 54.0137C123.453 54.2636 123.221 54.5283 122.961 54.8078C122.729 55.0726 122.512 55.3299 122.309 55.5798C120.992 57.1676 119.591 58.4492 118.109 59.4247ZM116.187 57.3794L116.557 57.026C116.629 56.9524 116.694 56.8642 116.752 56.7615C117.171 56.1447 117.416 55.7265 117.487 55.5068C117.472 55.4777 117.393 55.5368 117.248 55.6839C117.117 55.7872 117.001 55.9196 116.9 56.081C116.769 56.1843 116.61 56.4119 116.423 56.764C116.265 57.1012 116.186 57.3063 116.187 57.3794ZM131.7 52.4994C131.104 52.84 130.66 53.0479 130.368 53.1231C129.391 53.3643 128.797 52.9524 128.584 51.8876C128.524 51.625 128.464 51.5086 128.406 51.5383C128.391 51.5092 128.326 51.5608 128.21 51.6932C127.964 52.0749 127.486 52.5022 126.773 52.9751C126.541 53.0937 126.344 53.1391 126.183 53.1111C126.022 53.0831 125.956 53.0251 125.984 52.9373L125.594 53.4662C125.522 53.6128 125.435 53.7669 125.334 53.9283C124.829 54.7357 124.489 55.1108 124.313 55.0537C124.181 55.0109 124.107 54.8288 124.09 54.5075C124.129 53.9375 124.32 53.1252 124.663 52.0707C124.706 52.012 124.779 51.9749 124.881 51.9595C125.012 51.9293 125.085 51.9287 125.1 51.9578L125.167 52.0888C125.299 52.2047 125.222 52.6289 124.936 53.3616L124.85 53.6252C124.894 53.6395 124.937 53.6172 124.981 53.5585L125.046 53.4703L125.176 53.294L125.219 53.1622L125.674 52.4356L125.803 52.1497C125.961 51.8125 126.15 51.6796 126.37 51.751C126.457 51.7795 126.517 51.8959 126.548 52.1002C126.534 52.2903 126.579 52.3776 126.681 52.3622C126.812 52.332 127.175 52.037 127.77 51.4774C128.35 50.8886 128.654 50.5503 128.683 50.4624C128.856 50.1543 129.059 50.0139 129.293 50.0414C129.469 50.0985 129.507 50.2443 129.406 50.4788C129.161 50.9336 129.121 51.3941 129.285 51.8603C129.419 52.1953 129.567 52.4133 129.728 52.5144C130.007 52.7022 130.481 52.6255 131.151 52.2844C132.387 51.5446 133.911 50.1816 135.722 48.1956L136.2 47.7318L137.33 46.3865L137.482 46.2538L137.808 45.8131C137.837 45.7982 137.873 45.7614 137.916 45.7027C137.96 45.6439 137.996 45.6071 138.025 45.5923L138.156 45.5255C138.288 45.5684 138.347 45.6118 138.332 45.6557C138.347 45.6848 138.297 45.7655 138.181 45.8979L138.094 46.052C137.472 46.8456 136.741 47.7131 135.901 48.6545C134.583 50.2423 133.183 51.5239 131.7 52.4994ZM139.969 47.0766C139.823 47.1507 139.67 47.1373 139.508 47.0363C139.318 46.95 139.207 46.8048 139.176 46.6005C139.102 46.455 139.072 46.2872 139.085 46.0972L139.06 45.7248C139.045 45.6957 138.994 45.7399 138.908 45.8575C138.85 45.9602 138.778 46.1068 138.692 46.2974C138.591 46.4588 138.504 46.6129 138.432 46.7595C138.058 47.5367 137.697 48.0142 137.348 48.1922C137.086 48.3257 136.91 48.3051 136.821 48.1304C136.777 48.0431 136.812 47.8602 136.927 47.5818C137.228 46.8783 137.675 46.1006 138.268 45.2487C138.542 44.8522 138.716 44.6171 138.788 44.5435C138.89 44.4551 138.977 44.4471 139.051 44.5196C139.081 44.5778 139.168 44.5698 139.314 44.4957C139.43 44.4364 139.518 44.4284 139.576 44.4718C139.65 44.4712 139.687 44.544 139.688 44.6901C139.674 44.8071 139.667 44.9021 139.668 44.9751C139.669 45.0482 139.647 45.1506 139.605 45.2824C139.449 45.9118 139.525 46.3495 139.834 46.5955C139.863 46.6537 139.922 46.6606 140.009 46.6161C140.126 46.5568 140.22 46.4903 140.293 46.4167L140.445 46.2841C140.909 45.9007 141.923 44.7608 143.487 42.8643L143.552 42.7761L143.683 42.7094L143.749 42.7308C143.793 42.7451 143.83 42.7813 143.859 42.8395C143.874 42.8687 143.874 42.9052 143.86 42.9491L141.95 45.3522L140.624 46.7429L140.493 46.8096C140.333 46.9277 140.158 47.0167 139.969 47.0766ZM137.235 47.7548L137.452 47.534C137.929 46.8875 138.204 46.4545 138.275 46.2348C138.332 46.059 138.469 45.8243 138.686 45.5304C138.831 45.3832 138.889 45.2805 138.859 45.2223C138.815 45.135 138.67 45.2822 138.424 45.6639C137.932 46.2812 137.593 46.8755 137.408 47.4467L137.235 47.7548ZM148.305 42.8293C147.807 42.7162 147.578 42.3381 147.617 41.6949C147.644 41.3879 147.657 41.1979 147.656 41.1249C147.569 41.2424 147.382 41.5214 147.093 41.9619C146.43 43.1795 145.676 43.8938 144.83 44.1047C144.392 44.1811 144.077 44.0666 143.885 43.7613C143.472 43.1654 143.403 42.8153 143.68 42.711C143.738 42.6813 143.833 42.6879 143.965 42.7307C144.141 42.7878 144.237 42.904 144.252 43.0792C144.267 43.1083 144.26 43.1668 144.232 43.2546C144.203 43.3425 144.196 43.401 144.211 43.4301C144.33 43.6629 144.462 43.7788 144.608 43.7777C145.149 43.832 145.932 43.0299 146.957 41.3712C147.202 40.9895 147.39 40.674 147.519 40.4247C147.663 40.1314 147.749 39.9408 147.778 39.8529C147.807 39.7651 147.843 39.6917 147.886 39.633C147.958 39.5594 148.045 39.4784 148.147 39.3899C148.307 39.2718 148.474 39.2048 148.65 39.1889C148.797 39.3339 148.842 39.4942 148.785 39.67C148.51 39.9935 148.323 40.4916 148.226 41.1644C148.114 41.808 148.198 42.2238 148.477 42.4116C148.712 42.5851 149.235 42.2086 150.046 41.282C150.842 40.3264 151.493 39.4084 151.997 38.528L152.062 38.4398L152.193 38.3731L152.259 38.3945C152.332 38.3939 152.384 38.4228 152.413 38.481C152.428 38.5101 152.414 38.554 152.371 38.6128L150.462 41.2351C149.609 42.4395 148.89 42.9709 148.305 42.8293ZM152.248 40.9298L152.006 40.7782C151.889 40.6914 151.792 40.4657 151.716 40.1011C151.686 39.9698 151.706 39.7578 151.777 39.4651C151.848 39.1724 151.948 38.8283 152.076 38.4329C152.205 38.0374 152.269 37.8032 152.268 37.7302C152.354 37.5396 152.441 37.4586 152.529 37.4871C152.704 37.4712 152.75 37.6681 152.665 38.0778C152.34 39.5266 152.207 40.2727 152.266 40.316C152.442 40.4462 152.689 40.2106 153.005 39.6092C153.322 39.0078 153.537 38.4218 153.65 37.8512L153.67 37.6757L153.799 37.2803L153.819 37.1048C153.891 36.8851 153.992 36.7602 154.123 36.7299C154.357 36.6843 154.367 37.1372 154.155 38.0884C154.141 38.1323 154.127 38.1762 154.113 38.2202C153.986 38.8347 154.025 39.1997 154.23 39.315C154.26 39.3732 154.326 39.3946 154.428 39.3792C154.515 39.3347 154.581 39.2831 154.624 39.2243L154.733 39.114C155.197 38.7306 156.226 37.5832 157.819 35.6719L157.884 35.5838L157.971 35.5393L158.081 35.5385C158.154 35.5379 158.19 35.5741 158.191 35.6472C158.206 35.6763 158.191 35.7202 158.148 35.779L157.758 36.3079L156.282 38.1599L154.955 39.5505L154.824 39.6173C154.52 39.8826 154.272 39.9721 154.081 39.8859C153.876 39.7706 153.743 39.5817 153.683 39.3192L153.594 39.1445L153.572 39.2104L153.4 39.6281C153.127 40.2438 152.831 40.6332 152.51 40.7963L152.248 40.9298Z" fill="#7C1111"/>
<path d="M343.118 81.0099C343.516 81.6747 343.783 82.3167 343.919 82.9358L343.94 83.3292C344.11 83.6619 344.179 84.1801 344.149 84.884L344.224 85.3843L344.297 85.5269C344.225 85.5035 344.196 85.5932 344.209 85.7959C344.198 85.8317 344.204 85.9032 344.229 86.0104C344.218 86.1059 344.212 86.1834 344.213 86.2431C344.229 86.8631 344.173 87.2511 344.043 87.4071L344.081 87.7467L343.978 88.2484L344.016 88.588L343.912 89.0003L343.935 89.7514L343.726 90.397L343.695 91.1307C343.672 91.2024 343.655 91.286 343.644 91.3815C343.608 91.4295 343.597 91.4654 343.609 91.4891C343.633 91.5367 343.645 91.5902 343.646 91.6499L343.576 91.8651C343.509 92.5573 343.394 93.0352 343.229 93.2988C343.181 93.323 343.152 93.3531 343.14 93.3889C343.14 93.3889 343.104 93.4071 343.033 93.4434C343.069 93.4551 343.058 93.5207 342.999 93.6405L342.981 93.6943C343.066 93.8009 343.09 93.8783 343.055 93.9263C343.031 93.9384 342.989 93.9745 342.93 94.0345L342.877 94.1065C342.877 94.1065 342.889 94.1004 342.913 94.0883C342.901 94.1242 342.884 94.178 342.86 94.2497L342.702 94.6445L342.298 95.6136C342.275 95.6853 342.269 95.733 342.281 95.7568C342.305 95.7447 342.311 95.7566 342.3 95.7924C342.288 95.8283 342.253 95.9359 342.195 96.1152C342.124 96.2708 342.001 96.4984 341.824 96.7978L341.576 97.1038C341.541 97.1518 341.465 97.3253 341.348 97.6244C341.254 97.9113 341.137 98.1805 340.996 98.432L340.696 98.9889L340.166 99.8874L339.706 100.571L338.927 101.596C338.903 101.608 338.897 101.626 338.909 101.65C338.909 101.65 338.915 101.662 338.928 101.686L338.768 101.812C338.673 101.92 338.632 101.986 338.644 102.01L338.378 102.28C338.378 102.28 338.39 102.304 338.414 102.351L338.396 102.405L338.254 102.478L338.076 102.658L338.094 102.694L337.793 103.072C337.77 103.143 337.729 103.209 337.669 103.269C337.61 103.33 337.575 103.378 337.563 103.413C337.539 103.425 337.516 103.467 337.493 103.539L337.244 103.756C337.149 103.864 336.948 104.086 336.641 104.422C336.357 104.746 336.197 104.932 336.162 104.98C336.174 105.064 336.121 105.106 336.002 105.107C335.966 105.095 335.942 105.107 335.931 105.143C335.907 105.215 335.848 105.245 335.752 105.234C335.658 105.342 335.617 105.408 335.629 105.432C335.63 105.551 335.588 105.617 335.505 105.629L335.362 105.702C335.387 105.75 335.351 105.797 335.256 105.846L334.865 106.225L333.906 107.073C333.87 107.121 333.853 107.145 333.853 107.145C333.865 107.168 333.847 107.192 333.8 107.217C333.776 107.229 333.681 107.307 333.515 107.451C333.373 107.584 333.142 107.776 332.822 108.029L332.395 108.336C332.17 108.6 331.714 108.968 331.026 109.438L330.528 109.871L329.621 110.558L328.785 111.119L328.642 111.191L328.589 111.263C328.506 111.335 328.369 111.42 328.179 111.517L327.787 111.717C327.562 111.861 327.301 112.024 327.004 112.206C326.707 112.387 326.404 112.556 326.095 112.713C325.81 112.859 325.632 112.949 325.561 112.986L324.403 113.71C324.368 113.698 324.13 113.819 323.691 114.073C323.239 114.303 322.657 114.63 321.945 115.052C321.256 115.463 320.609 115.868 320.004 116.266L319.524 116.645C319.287 116.766 318.907 116.99 318.384 117.316C317.862 117.642 317.577 117.817 317.53 117.841L317.494 117.859C317.21 118.124 316.759 118.443 316.142 118.817L316.106 118.836L315.806 119.392C315.725 119.644 315.212 120.399 314.267 121.658C313.346 122.905 312.779 123.613 312.566 123.782C312.447 123.843 312.299 123.993 312.122 124.233C311.044 125.231 310.267 125.731 309.79 125.735L309.432 125.648C309.216 125.578 309.12 125.478 309.143 125.346C309.166 125.215 309.284 125.125 309.499 125.075L309.516 125.022L309.498 124.986C309.637 124.377 310.061 123.682 310.77 122.901C311.148 122.409 311.645 121.887 312.261 121.334L312.545 121.099C312.652 121.014 313.061 120.701 313.773 120.159C314.496 119.581 315.106 119.106 315.604 118.732L315.711 118.588C315.758 118.564 315.882 118.366 316.082 117.995C316.246 117.672 316.364 117.492 316.436 117.456C316.471 117.467 316.495 117.455 316.507 117.419C316.506 117.36 316.518 117.264 316.54 117.133C316.552 117.097 316.57 117.043 316.593 116.971C316.604 116.876 316.615 116.81 316.627 116.774C316.65 116.703 316.674 116.661 316.698 116.649L316.873 116.2C316.931 116.021 317.008 115.907 317.103 115.858C317.198 115.75 317.268 115.595 317.314 115.392C317.373 115.212 317.425 115.111 317.473 115.086C317.568 115.038 317.621 114.936 317.632 114.781L317.93 113.956C318.094 113.573 318.157 113.346 318.121 113.275C318.109 113.251 318.168 113.161 318.298 113.005C318.393 112.897 318.551 112.562 318.773 112C319.089 111.151 319.47 110.253 319.916 109.308L320.425 108.016C320.471 107.872 320.506 107.794 320.53 107.782C320.589 107.722 320.636 107.638 320.671 107.531L321.094 106.597L321.34 106.023L320.841 106.277C319.89 106.762 319.147 107.036 318.611 107.099C316.861 107.482 315.63 107.152 314.918 106.108L314.612 105.77L314.558 105.753L314.375 105.307C314.035 104.463 313.897 103.516 313.96 102.466L314.009 101.857L314.426 100.208C314.519 99.8018 314.623 99.4194 314.74 99.0607C314.88 98.6899 315.008 98.355 315.125 98.056C315.266 97.7448 315.354 97.5355 315.389 97.4279C315.412 97.3561 315.848 96.5657 316.695 95.0566L316.889 94.7331L317.154 94.2839L317.384 93.9422L317.649 93.493L318.038 92.846L319.011 91.4075C319.022 91.3717 319.058 91.3237 319.117 91.2636C319.164 91.1798 319.193 91.1199 319.205 91.0841L319.257 90.9227L319.488 90.6705C319.547 90.6104 319.648 90.4844 319.789 90.2925C319.943 90.0647 320.084 89.8729 320.214 89.7168C320.356 89.5249 320.444 89.405 320.48 89.357L320.658 89.2662C320.694 89.2779 320.718 89.2658 320.729 89.2299C320.74 89.1344 320.8 89.1042 320.907 89.1391C320.99 89.0073 321.025 88.9295 321.013 88.9058C320.977 88.8345 321.006 88.7746 321.101 88.7262C321.196 88.6778 321.238 88.6417 321.226 88.6179C321.189 88.5466 321.23 88.4807 321.349 88.4202C321.397 88.396 321.456 88.3359 321.527 88.24C321.598 88.144 321.657 88.0839 321.704 88.0597L322.556 87.1767C322.615 87.1166 322.645 87.0866 322.645 87.0866C322.633 87.0628 322.627 87.0509 322.627 87.0509C322.639 87.0151 322.715 86.931 322.858 86.7987C323.011 86.6306 323.254 86.4022 323.586 86.1134L323.941 85.7529C323.988 85.7287 324.154 85.5844 324.438 85.3198C324.734 85.0194 325.013 84.7728 325.274 84.58L325.735 84.0756L326.606 83.3177L327.335 82.7218L328.598 81.8536C328.622 81.8414 328.634 81.8354 328.634 81.8354L328.687 81.7634L328.829 81.6908C328.865 81.6428 328.942 81.5886 329.061 81.528L329.435 81.2926L329.452 81.2388C329.476 81.2267 329.5 81.2146 329.523 81.2025L329.666 81.1299L330.77 80.4775L331.001 80.3147L331.749 79.8439L331.892 79.7713L331.946 79.7888L332.213 79.6079L332.426 79.4095C332.462 79.4211 332.551 79.3906 332.693 79.318L332.978 79.1727L333.192 79.0638L333.406 78.9548L333.656 78.8277C333.703 78.7438 333.875 78.671 334.173 78.6091L334.707 78.3367C335.017 78.2389 335.344 78.147 335.689 78.0609L335.76 78.0246C336.212 77.7946 337.046 77.6988 338.263 77.7373C338.311 77.7727 338.508 77.8368 338.855 77.9295C339.225 78.0102 339.476 78.0918 339.608 78.1743C340.05 78.3379 340.691 78.7146 341.53 79.3046C342.166 79.7887 342.695 80.3572 343.118 81.0099ZM343.42 83.19L342.656 81.4248L342.385 81.0691L341.518 80.0739L341.465 80.0564L341.446 80.0208C341.229 79.7123 340.797 79.3638 340.151 78.9752C339.515 78.5506 338.846 78.3232 338.142 78.2927C337.223 78.252 336.579 78.2807 336.21 78.379L336.158 78.5404C336.014 78.4937 335.931 78.4765 335.907 78.4886L335.8 78.5431L335.015 78.8531L335.407 78.6534C334.705 78.8615 334.247 79.02 334.034 79.1289L334.016 79.1827C333.897 79.1836 333.826 79.22 333.802 79.2917C333.791 79.3276 333.779 79.3336 333.767 79.3098C333.73 79.2386 333.641 79.2691 333.499 79.4013L332.733 79.8365C332.686 79.8607 332.614 79.897 332.519 79.9454C332.448 79.9818 332.371 80.0062 332.287 80.0188L331.504 80.5077L331.219 80.653L330.916 80.8521L330.862 80.8346C330.791 80.8709 330.678 80.9433 330.524 81.0518C330.382 81.1245 330.263 81.185 330.168 81.2334C330.096 81.2697 329.954 81.3722 329.741 81.5408C329.539 81.6735 329.379 81.7701 329.26 81.8306C328.975 81.9759 328.797 82.0965 328.726 82.1925L328.299 82.4998C327.291 83.223 326.645 83.7467 326.361 84.0709C326.349 84.1068 326.142 84.2872 325.739 84.6123C325.051 85.1423 324.447 85.6895 323.927 86.2539L322.081 88.1821C321.442 88.8667 321.135 89.2328 321.159 89.2803L321.142 89.3341C321.094 89.3583 321.053 89.3944 321.017 89.4424C320.993 89.4545 320.952 89.4906 320.893 89.5507C320.834 89.6108 320.757 89.6948 320.662 89.8029C320.591 89.8988 320.52 89.9948 320.45 90.0907L319.901 90.8641C319.83 90.9601 319.831 91.0197 319.902 91.043C319.914 91.0667 319.909 91.0847 319.885 91.0968C319.873 91.073 319.819 91.0854 319.724 91.1338L319.229 91.9247L318.841 92.5716C318.793 92.6555 318.717 92.7693 318.611 92.9133C318.516 93.0213 318.463 93.0933 318.451 93.1291L318.399 93.2905C318.339 93.291 318.286 93.3629 318.239 93.5064L318.151 93.686C318.115 93.6743 318.08 93.6925 318.044 93.7405C318.021 93.7526 318.003 93.7765 317.991 93.8124L317.78 94.2791L317.372 94.7116C317.289 94.8434 317.136 95.1009 316.913 95.4843C316.689 95.8676 316.542 96.1371 316.472 96.2926C316.413 96.4123 316.295 96.6518 316.119 97.0109C315.955 97.3341 315.814 97.6453 315.697 97.9443C315.592 98.2075 315.457 98.5603 315.294 99.0028C315.13 99.4453 314.961 99.9356 314.786 100.474C314.565 101.155 314.427 101.943 314.375 102.838C314.346 103.721 314.416 104.418 314.587 104.929C314.722 105.37 315.119 105.885 315.78 106.477C316.26 106.891 316.839 107.029 317.518 106.893C317.554 106.905 317.59 106.916 317.626 106.928L317.68 106.945L318.555 106.813C319.127 106.702 319.466 106.604 319.573 106.52C320.464 106.155 321.112 105.87 321.516 105.664L322.202 104.102C322.26 103.923 322.313 103.821 322.36 103.797C322.432 103.761 322.484 103.629 322.518 103.402C322.53 103.366 322.577 103.253 322.659 103.061C322.753 102.834 322.823 102.679 322.87 102.595L323.292 101.572C323.397 101.309 323.52 100.992 323.66 100.621C323.788 100.226 323.899 99.9154 323.993 99.6881L324.133 99.3472C324.276 99.2745 324.79 97.8753 325.676 95.1494L326.289 93.4453C326.36 93.409 326.401 93.3133 326.412 93.1581C326.423 93.0627 326.475 92.8714 326.569 92.5845L326.849 91.8131C326.966 91.5141 327.042 91.3704 327.078 91.3821C327.102 91.37 327.12 91.3162 327.131 91.2207C327.118 91.1373 327.235 90.7488 327.48 90.0552C327.737 89.3258 327.965 88.7456 328.164 88.3148C328.246 88.1234 328.322 87.92 328.392 87.7048C328.403 87.6093 328.445 87.5434 328.516 87.5071C328.551 87.4591 328.586 87.3814 328.621 87.2738L328.656 87.1662C328.728 87.1895 328.781 87.0877 328.815 86.8608C329.002 86.4062 329.291 85.9747 329.682 85.5663C330.084 85.1219 330.357 84.9231 330.5 84.9697L330.625 84.9509C330.709 84.9383 330.81 84.9316 330.929 84.9307C331.06 84.8939 331.179 84.893 331.287 84.9279C331.921 85.1736 332.215 85.4576 332.17 85.7799C332.147 85.8517 332.087 85.9117 331.992 85.9602C331.897 86.0086 331.802 85.9676 331.705 85.8371C331.163 85.1257 330.62 84.9986 330.074 85.4559C329.648 85.7931 329.306 86.2966 329.048 86.9664C329.037 87.0023 328.996 87.0682 328.925 87.1641L328.644 87.846C328.574 88.1209 328.405 88.5813 328.135 89.2274L327.731 90.1964C327.38 91.0936 327.181 91.5542 327.134 91.5784C327.086 91.6026 327.069 91.6863 327.082 91.8293C327.095 91.9723 327.054 92.068 326.959 92.1164C326.864 92.1649 326.846 92.2187 326.906 92.2778C326.943 92.3491 326.937 92.4267 326.89 92.5105C326.643 92.9059 326.549 93.1631 326.61 93.2819C326.622 93.3056 326.604 93.3296 326.557 93.3538C326.473 93.3664 326.409 93.5338 326.364 93.8562C326.307 94.2144 326.191 94.6327 326.015 95.1111L324.929 98.0889L324.754 98.6269C324.51 99.4993 324.288 100.032 324.086 100.224C324.004 100.296 323.969 100.404 323.982 100.547C323.982 100.666 323.971 100.791 323.949 100.923L322.806 103.615C322.783 103.687 322.736 103.741 322.664 103.777C322.629 103.765 322.575 103.837 322.505 103.993C322.446 104.113 322.429 104.196 322.453 104.244C322.502 104.339 322.397 104.661 322.139 105.212C322.127 105.248 322.109 105.272 322.085 105.284L322.424 105.156C322.448 105.084 322.934 104.687 323.882 103.964L324.451 103.495C325.281 102.892 326.004 102.195 326.618 101.403L327.31 100.647L327.629 100.305C327.902 100.076 328.097 99.8716 328.215 99.6919L328.427 99.404C328.865 98.9714 329.072 98.7313 329.048 98.6837L329.314 98.3239C329.325 98.2881 329.396 98.2219 329.527 98.1255C329.657 98.0291 329.734 97.9451 329.757 97.8733C329.839 97.6223 330.052 97.3643 330.395 97.0993L330.518 96.8121L330.607 96.722C330.655 96.6978 330.672 96.6738 330.66 96.65C330.72 96.6496 330.821 96.5534 330.962 96.3615L331.157 96.038C331.37 95.8695 331.548 95.6892 331.689 95.4973C331.819 95.3413 332.285 94.6103 333.086 93.3043C333.345 92.873 333.509 92.5497 333.579 92.3345C333.436 92.2879 333.417 92.1628 333.523 91.9593C333.737 91.8503 333.915 91.8191 334.059 91.8658C334.369 91.8872 334.217 92.3535 333.604 93.2645L333.056 94.0379C331.663 95.9448 330.6 97.3243 329.867 98.1766L329.353 98.753C329.353 98.8126 329.288 98.9204 329.158 99.0765C329.016 99.2087 328.921 99.287 328.874 99.3112C328.827 99.395 328.72 99.5091 328.554 99.6535L328.218 100.139C328.052 100.224 327.952 100.38 327.918 100.606L327.829 100.697C327.745 100.709 327.532 100.908 327.189 101.292C326.953 101.592 326.509 102.012 325.857 102.554L325.343 103.13C325.165 103.311 325.053 103.413 325.005 103.437L324.934 103.473C324.899 103.521 324.863 103.569 324.828 103.617C324.78 103.642 324.715 103.69 324.632 103.762C324.573 103.822 324.514 103.882 324.455 103.942C324.36 103.991 324.182 104.111 323.921 104.304C323.683 104.485 323.512 104.617 323.405 104.702L322.355 105.461C322.272 105.533 322.112 105.63 321.874 105.751L321.013 107.761L319.063 112.391C319.004 112.57 318.87 112.893 318.658 113.36L318.394 113.899L318.043 114.796L317.445 116.178L316.953 117.237C316.871 117.488 316.736 117.781 316.548 118.117C316.583 118.069 316.637 118.027 316.708 117.99C316.779 117.954 316.975 117.809 317.295 117.556C317.639 117.291 318.007 117.044 318.398 116.815C318.778 116.561 319.212 116.325 319.699 116.107L319.948 115.98L322.958 114.132C323.694 113.698 324.115 113.468 324.223 113.443L325.166 112.828L327.215 111.739L327.197 111.703C327.221 111.691 327.256 111.673 327.304 111.649C327.339 111.601 327.369 111.571 327.393 111.559L327.873 111.269C329.06 110.484 329.736 110.02 329.902 109.876C329.973 109.78 330.198 109.605 330.578 109.352C331.42 108.713 332.048 108.214 332.463 107.853L334.471 106.067C335.17 105.441 335.507 105.105 335.483 105.057C335.471 105.033 335.476 105.015 335.5 105.003C335.548 104.979 335.583 104.961 335.607 104.949C335.619 104.913 335.654 104.865 335.713 104.805C335.772 104.745 335.855 104.673 335.962 104.588C336.057 104.48 336.139 104.378 336.21 104.282L336.831 103.562C336.914 103.49 336.931 103.436 336.883 103.401C336.871 103.377 336.877 103.359 336.901 103.347C336.913 103.371 336.967 103.358 337.062 103.31L337.61 102.536L337.752 102.374C337.788 102.326 337.864 102.242 337.983 102.122C338.125 101.99 338.208 101.888 338.231 101.816C338.468 101.576 338.585 101.396 338.585 101.277L338.958 100.952C339.242 100.687 339.613 100.094 340.071 99.1725C340.119 99.1483 340.16 99.0526 340.194 98.8853C340.253 98.706 340.299 98.5924 340.335 98.5444C340.619 98.2799 340.966 97.669 341.376 96.7118L342.22 94.666C342.524 93.972 342.676 93.5654 342.675 93.4461L342.693 93.3923L342.866 92.586L343.021 91.8335C343.056 91.7855 343.02 91.7441 342.913 91.7091C342.924 91.6732 342.942 91.6492 342.966 91.6371C343.049 91.6246 343.091 91.5885 343.09 91.5289L343.174 90.8127L343.223 90.1146C343.234 90.0787 343.246 90.0131 343.257 89.9176C343.268 89.8221 343.273 89.7445 343.273 89.6849C343.272 89.6253 343.284 89.5894 343.308 89.5773L343.325 89.4341C343.42 89.3856 343.437 89.302 343.376 89.1832L343.339 89.0225C343.315 88.975 343.345 88.9151 343.428 88.8429L343.424 88.3957L343.456 87.8409L343.452 87.3043L343.521 86.9997L343.519 86.7313C343.543 86.7192 343.548 86.6119 343.534 86.4092C343.532 86.1707 343.525 85.9203 343.511 85.658C343.508 85.3599 343.513 85.1631 343.524 85.0676L343.541 84.9244C343.67 84.6491 343.669 84.4702 343.537 84.3877C343.477 84.3286 343.469 84.108 343.514 83.726L343.531 83.5828C343.483 83.5474 343.435 83.4821 343.386 83.3871C343.361 83.2799 343.373 83.2143 343.42 83.19ZM314.508 120.458C314.615 120.373 314.816 120.092 315.11 119.612L314.968 119.685C314.422 120.023 314.095 120.264 313.989 120.408L312.94 121.257C312.359 121.702 311.921 122.135 311.626 122.555C311.591 122.603 311.496 122.711 311.343 122.879C311.213 123.035 311.094 123.185 310.988 123.329L310.811 123.509C310.763 123.533 310.633 123.719 310.421 124.067C310.198 124.45 310.068 124.695 310.033 124.803C309.987 124.946 309.97 125.06 309.982 125.143L310.142 125.017C310.237 124.968 310.332 124.92 310.427 124.872C310.879 124.642 311.252 124.347 311.548 123.987L312.275 123.212C312.512 122.971 312.92 122.509 313.499 121.825L314.102 121.069L314.508 120.458ZM347.223 93.9575C346.807 94.1992 346.48 94.3507 346.242 94.4122C345.599 94.5602 345.216 94.3067 345.091 93.6517C345.055 93.5804 345.048 93.4195 345.07 93.1688C345.146 92.2619 345.528 91.454 346.214 90.7451C346.676 90.2407 346.99 90.0654 347.158 90.2192C347.206 90.2546 347.189 90.368 347.107 90.5595C347.049 90.7388 346.926 90.9961 346.737 91.3315C346.408 91.978 346.078 92.4456 345.746 92.7344C345.569 92.9146 345.481 93.0644 345.481 93.1836C345.4 93.4347 345.479 93.6786 345.72 93.9153C345.852 94.117 346.204 94.0726 346.774 93.782C347.926 93.1054 349.182 92.0166 350.542 90.5155L351.464 89.4173L352.385 88.319C352.504 88.1989 352.593 88.1684 352.653 88.2276C352.689 88.2392 352.678 88.3049 352.619 88.4246C352.583 88.4726 352.548 88.5205 352.513 88.5685L352.442 88.6943C352.17 89.0422 351.94 89.3242 351.751 89.5403C351.585 89.7443 351.396 89.9604 351.183 90.1886C350.994 90.4047 350.817 90.6148 350.651 90.8188C349.576 92.115 348.433 93.1612 347.223 93.9575ZM345.654 92.2878L345.955 91.9993C346.015 91.9393 346.068 91.8673 346.115 91.7835C346.457 91.28 346.657 90.9386 346.715 90.7592C346.703 90.7355 346.638 90.7837 346.52 90.9038C346.413 90.9881 346.318 91.0962 346.236 91.228C346.129 91.3123 345.999 91.4981 345.846 91.7855C345.717 92.0608 345.653 92.2282 345.654 92.2878ZM358.318 88.3042C357.831 88.5822 357.468 88.7519 357.23 88.8133C356.433 89.0102 355.947 88.674 355.774 87.8047C355.724 87.5904 355.676 87.4954 355.628 87.5196C355.616 87.4958 355.563 87.538 355.468 87.646C355.268 87.9576 354.877 88.3065 354.296 88.6925C354.106 88.7894 353.945 88.8264 353.814 88.8035C353.682 88.7806 353.628 88.7334 353.651 88.6616L353.333 89.0934C353.274 89.2131 353.203 89.3388 353.121 89.4707C352.709 90.1297 352.431 90.4359 352.287 90.3893C352.18 90.3544 352.119 90.2057 352.105 89.9435C352.137 89.4781 352.293 88.815 352.573 87.9542C352.608 87.9063 352.668 87.876 352.751 87.8634C352.858 87.8388 352.918 87.8383 352.93 87.8621L352.984 87.969C353.092 88.0636 353.029 88.4099 352.795 89.008L352.725 89.2232C352.761 89.2349 352.797 89.2167 352.832 89.1687L352.886 89.0968L352.992 88.9529L353.027 88.8453L353.398 88.2521L353.503 88.0187C353.633 87.7435 353.787 87.635 353.966 87.6932C354.038 87.7165 354.086 87.8116 354.111 87.9783C354.101 88.1335 354.137 88.2047 354.22 88.1922C354.327 88.1675 354.624 87.9267 355.109 87.4699C355.583 86.9892 355.831 86.7131 355.854 86.6413C355.996 86.3898 356.162 86.2752 356.353 86.2976C356.496 86.3443 356.527 86.4633 356.445 86.6547C356.245 87.026 356.212 87.4019 356.346 87.7825C356.455 88.056 356.576 88.2339 356.708 88.3164C356.936 88.4697 357.323 88.4072 357.869 88.1287C358.878 87.5247 360.122 86.4121 361.601 84.7909L361.991 84.4123L362.913 83.314L363.038 83.2058L363.303 82.846C363.327 82.8339 363.357 82.8038 363.392 82.7558C363.427 82.7079 363.457 82.6778 363.481 82.6657L363.588 82.6112C363.695 82.6462 363.743 82.6816 363.732 82.7175C363.744 82.7412 363.702 82.8072 363.608 82.9152L363.537 83.041C363.029 83.6888 362.432 84.397 361.747 85.1655C360.671 86.4616 359.528 87.5079 358.318 88.3042ZM365.067 83.8774C364.949 83.9379 364.823 83.927 364.692 83.8445C364.536 83.7741 364.446 83.6555 364.421 83.4888C364.36 83.37 364.335 83.233 364.346 83.0779L364.326 82.7739C364.314 82.7501 364.272 82.7862 364.201 82.8822C364.154 82.966 364.095 83.0857 364.025 83.2413C363.943 83.3731 363.872 83.4989 363.813 83.6186C363.508 84.253 363.213 84.6428 362.928 84.7881C362.714 84.8971 362.571 84.8803 362.498 84.7377C362.462 84.6664 362.49 84.5171 362.584 84.2898C362.83 83.7155 363.195 83.0806 363.679 82.3853C363.903 82.0616 364.044 81.8697 364.104 81.8096C364.187 81.7374 364.258 81.7309 364.318 81.7901C364.342 81.8376 364.414 81.8311 364.533 81.7706C364.628 81.7221 364.699 81.7156 364.747 81.751C364.807 81.7506 364.837 81.81 364.838 81.9292C364.827 82.0247 364.821 82.1023 364.822 82.1619C364.822 82.2215 364.805 82.3052 364.77 82.4128C364.643 82.9265 364.705 83.2838 364.957 83.4847C364.981 83.5322 365.029 83.5378 365.1 83.5015C365.195 83.4531 365.273 83.3988 365.332 83.3387L365.456 83.2304C365.835 82.9175 366.663 81.9869 367.939 80.4388L367.993 80.3668L368.099 80.3123L368.153 80.3298C368.189 80.3415 368.219 80.3711 368.243 80.4186C368.255 80.4424 368.256 80.4722 368.244 80.508L366.685 82.4698L365.602 83.605L365.495 83.6595C365.365 83.7559 365.222 83.8285 365.067 83.8774ZM362.836 84.431L363.013 84.2508C363.403 83.7231 363.627 83.3696 363.685 83.1902C363.731 83.0468 363.843 82.8551 364.02 82.6152C364.139 82.4951 364.186 82.4112 364.162 82.3637C364.125 82.2924 364.007 82.4126 363.806 82.7242C363.405 83.2281 363.128 83.7132 362.977 84.1795L362.836 84.431ZM371.872 80.4102C371.466 80.3179 371.279 80.0092 371.311 79.4842C371.333 79.2336 371.343 79.0785 371.343 79.0189C371.272 79.1148 371.119 79.3426 370.883 79.7021C370.342 80.6961 369.726 81.2792 369.036 81.4514C368.679 81.5137 368.421 81.4203 368.264 81.171C367.927 80.6846 367.871 80.3988 368.097 80.3136C368.144 80.2894 368.222 80.2948 368.33 80.3297C368.473 80.3764 368.551 80.4712 368.564 80.6142C368.576 80.638 368.571 80.6857 368.548 80.7574C368.524 80.8292 368.519 80.8769 368.531 80.9007C368.628 81.0908 368.736 81.1853 368.855 81.1844C369.296 81.2288 369.936 80.574 370.772 79.22C370.972 78.9084 371.125 78.6508 371.231 78.4473C371.349 78.2078 371.419 78.0523 371.442 77.9805C371.466 77.9088 371.495 77.849 371.53 77.801C371.59 77.7409 371.661 77.6748 371.744 77.6026C371.874 77.5062 372.011 77.4515 372.154 77.4385C372.274 77.5568 372.311 77.6877 372.264 77.8312C372.04 78.0953 371.888 78.5019 371.808 79.0511C371.717 79.5765 371.785 79.9159 372.013 80.0692C372.205 80.2109 372.632 79.9035 373.294 79.1472C373.944 78.367 374.475 77.6176 374.887 76.8989L374.94 76.827L375.047 76.7725L375.101 76.79C375.16 76.7895 375.202 76.8131 375.226 76.8606C375.238 76.8843 375.227 76.9202 375.191 76.9682L373.633 79.1088C372.937 80.092 372.35 80.5258 371.872 80.4102ZM375.092 78.8596L374.894 78.7359C374.798 78.665 374.719 78.4808 374.657 78.1831C374.633 78.076 374.649 77.9029 374.707 77.6639C374.765 77.425 374.846 77.1441 374.951 76.8213C375.056 76.4985 375.108 76.3073 375.108 76.2477C375.178 76.0921 375.249 76.026 375.321 76.0493C375.464 76.0363 375.501 76.197 375.432 76.5314C375.166 77.7141 375.058 78.3232 375.106 78.3586C375.25 78.4648 375.451 78.2725 375.71 77.7816C375.968 77.2906 376.144 76.8123 376.235 76.3464L376.252 76.2032L376.357 75.8804L376.374 75.7372C376.432 75.5578 376.515 75.4558 376.622 75.4312C376.813 75.3939 376.821 75.7636 376.648 76.5401C376.637 76.5759 376.625 76.6118 376.613 76.6477C376.51 77.1494 376.542 77.4473 376.71 77.5414C376.734 77.5889 376.788 77.6064 376.871 77.5938C376.942 77.5575 376.996 77.5154 377.031 77.4674L377.12 77.3773C377.499 77.0643 378.339 76.1277 379.639 74.5675L379.692 74.4955L379.763 74.4592L379.853 74.4585C379.912 74.4581 379.942 74.4877 379.943 74.5473C379.955 74.571 379.943 74.6069 379.908 74.6549L379.589 75.0866L378.384 76.5985L377.301 77.7337L377.194 77.7882C376.946 78.0047 376.743 78.0778 376.588 78.0074C376.42 77.9133 376.312 77.7591 376.262 77.5448L376.19 77.4022L376.172 77.456L376.032 77.797C375.809 78.2996 375.567 78.6175 375.306 78.7506L375.092 78.8596ZM432.462 35.4867C432.861 36.1515 433.128 36.7935 433.264 37.4126L433.285 37.806C433.454 38.1387 433.524 38.6569 433.493 39.3608L433.568 39.8611L433.641 40.0037C433.569 39.9804 433.54 40.07 433.554 40.2727C433.542 40.3085 433.549 40.38 433.573 40.4872C433.562 40.5827 433.557 40.6602 433.557 40.7199C433.574 41.3399 433.517 41.7279 433.387 41.884L433.425 42.2236L433.322 42.7252L433.36 43.0648L433.256 43.4771L433.28 44.2282L433.07 44.8738L433.04 45.6075C433.016 45.6792 432.999 45.7629 432.988 45.8584C432.952 45.9063 432.941 45.9422 432.953 45.966C432.977 46.0135 432.989 46.067 432.99 46.1267L432.92 46.3419C432.854 47.0341 432.738 47.512 432.573 47.7756C432.526 47.7998 432.496 47.8299 432.484 47.8657C432.484 47.8657 432.449 47.8839 432.377 47.9202C432.413 47.9319 432.402 47.9976 432.343 48.1173L432.326 48.1711C432.41 48.2778 432.434 48.3551 432.399 48.4031C432.375 48.4152 432.334 48.4513 432.275 48.5113L432.221 48.5833C432.221 48.5833 432.233 48.5773 432.257 48.5651C432.245 48.601 432.228 48.6548 432.205 48.7265L432.047 49.1213L431.643 50.0904C431.619 50.1621 431.614 50.2099 431.626 50.2336C431.65 50.2215 431.656 50.2334 431.644 50.2693C431.632 50.3051 431.597 50.4127 431.539 50.5921C431.469 50.7476 431.345 50.9752 431.169 51.2747L430.92 51.5807C430.885 51.6286 430.809 51.8021 430.692 52.1012C430.599 52.3881 430.481 52.6573 430.34 52.9089L430.04 53.4657L429.51 54.3642L429.051 55.0474L428.271 56.073C428.247 56.0851 428.242 56.1031 428.254 56.1268C428.254 56.1268 428.26 56.1387 428.272 56.1625L428.112 56.2889C428.017 56.397 427.976 56.4629 427.988 56.4866L427.722 56.757C427.722 56.757 427.734 56.7807 427.758 56.8283L427.741 56.8821L427.598 56.9547L427.421 57.1349L427.439 57.1706L427.137 57.5485C427.114 57.6203 427.073 57.6862 427.014 57.7463C426.955 57.8063 426.919 57.8543 426.908 57.8902C426.884 57.9023 426.86 57.9442 426.837 58.0159L426.588 58.2325C426.494 58.3405 426.292 58.5627 425.985 58.899C425.701 59.2231 425.542 59.4092 425.506 59.4572C425.519 59.5406 425.465 59.5827 425.346 59.5836C425.31 59.572 425.286 59.5841 425.275 59.6199C425.252 59.6917 425.192 59.7219 425.097 59.7107C425.002 59.8188 424.961 59.8847 424.973 59.9084C424.974 60.0277 424.933 60.0936 424.849 60.1062L424.707 60.1788C424.731 60.2263 424.695 60.2743 424.6 60.3227L424.21 60.7014L423.25 61.5494C423.215 61.5974 423.197 61.6214 423.197 61.6214C423.209 61.6451 423.191 61.6691 423.144 61.6933C423.12 61.7054 423.025 61.7837 422.859 61.9281C422.717 62.0603 422.486 62.2529 422.166 62.5058L421.739 62.8131C421.515 63.0772 421.058 63.4444 420.37 63.9148L419.872 64.3479L418.965 65.0345L418.129 65.5955L417.986 65.6681L417.933 65.74C417.85 65.8122 417.714 65.8968 417.524 65.9936L417.132 66.1934C416.906 66.3382 416.645 66.5012 416.348 66.6823C416.051 66.8635 415.749 67.0327 415.44 67.1901C415.155 67.3354 414.976 67.4262 414.905 67.4625L413.748 68.1868C413.712 68.1752 413.474 68.2963 413.035 68.55C412.584 68.7801 412.002 69.1065 411.289 69.5293C410.601 69.94 409.954 70.3444 409.349 70.7426L408.868 71.1219C408.631 71.243 408.251 71.4665 407.729 71.7925C407.206 72.1184 406.921 72.2935 406.874 72.3177L406.838 72.3359C406.554 72.6004 406.103 72.9199 405.486 73.2943L405.45 73.3124L405.15 73.8693C405.069 74.1203 404.556 74.8756 403.611 76.135C402.691 77.3823 402.124 78.0902 401.91 78.2588C401.791 78.3193 401.643 78.4695 401.466 78.7094C400.389 79.7074 399.611 80.2083 399.134 80.2119L398.776 80.1252C398.561 80.0553 398.464 79.9546 398.487 79.8232C398.51 79.6919 398.629 79.6015 398.843 79.5522L398.86 79.4984L398.842 79.4628C398.981 78.8535 399.405 78.1586 400.115 77.378C400.492 76.8861 400.989 76.3636 401.605 75.8103L401.89 75.5756C401.996 75.4913 402.406 75.1781 403.117 74.6361C403.84 74.0581 404.451 73.5824 404.949 73.2089L405.055 73.065C405.102 73.0408 405.226 72.8431 405.426 72.4718C405.591 72.1486 405.709 71.9688 405.78 71.9325C405.816 71.9441 405.839 71.932 405.851 71.8962C405.851 71.8365 405.862 71.741 405.885 71.6097C405.896 71.5738 405.914 71.52 405.937 71.4483C405.948 71.3528 405.96 71.2871 405.971 71.2512C405.995 71.1795 406.018 71.1376 406.042 71.1255L406.217 70.6769C406.276 70.4976 406.352 70.3837 406.447 70.3353C406.542 70.2272 406.612 70.0717 406.659 69.8686C406.717 69.6892 406.77 69.5875 406.817 69.5632C406.912 69.5148 406.965 69.413 406.976 69.2579L407.274 68.4328C407.438 68.0499 407.502 67.8228 407.465 67.7515C407.453 67.7278 407.512 67.6379 407.642 67.4819C407.737 67.3738 407.895 67.0387 408.118 66.4765C408.433 65.6273 408.814 64.73 409.26 63.7844L409.769 62.4926C409.816 62.3491 409.851 62.2713 409.875 62.2592C409.934 62.1991 409.981 62.1153 410.016 62.0077L410.438 61.0742L410.684 60.4999L410.185 60.7542C409.235 61.2384 408.491 61.5124 407.955 61.5761C406.205 61.9591 404.974 61.6285 404.263 60.5844L403.956 60.2469L403.902 60.2294L403.72 59.7836C403.379 58.9394 403.241 57.9923 403.305 56.9424L403.354 56.3337L403.771 54.6848C403.863 54.2786 403.967 53.8962 404.084 53.5375C404.224 53.1667 404.353 52.8318 404.47 52.5328C404.61 52.2217 404.698 52.0123 404.733 51.9047C404.757 51.8329 405.192 51.0425 406.039 49.5334L406.233 49.2099L406.498 48.7607L406.728 48.4191L406.993 47.9698L407.382 47.3229L408.355 45.8844C408.367 45.8485 408.402 45.8005 408.461 45.7404C408.508 45.6566 408.538 45.5967 408.549 45.5609L408.602 45.3995L408.832 45.1473C408.891 45.0872 408.992 44.9612 409.134 44.7693C409.287 44.5416 409.428 44.3497 409.558 44.1936C409.7 44.0018 409.789 43.8818 409.824 43.8338L410.002 43.743C410.038 43.7547 410.062 43.7426 410.074 43.7067C410.085 43.6112 410.144 43.581 410.252 43.6159C410.334 43.4841 410.369 43.4063 410.357 43.3826C410.321 43.3113 410.35 43.2514 410.445 43.203C410.54 43.1546 410.582 43.1185 410.57 43.0947C410.533 43.0235 410.575 42.9575 410.694 42.897C410.741 42.8728 410.8 42.8127 410.871 42.7168C410.942 42.6208 411.001 42.5607 411.049 42.5365L411.901 41.6535C411.96 41.5934 411.989 41.5634 411.989 41.5634C411.977 41.5396 411.971 41.5277 411.971 41.5277C411.983 41.4919 412.06 41.4078 412.202 41.2755C412.356 41.1074 412.598 40.879 412.93 40.5902L413.285 40.2298C413.333 40.2055 413.498 40.0612 413.783 39.7966C414.079 39.4962 414.357 39.2496 414.618 39.0569L415.079 38.5525L415.95 37.7945L416.679 37.1986L417.942 36.3304C417.966 36.3183 417.978 36.3122 417.978 36.3122L418.031 36.2402L418.174 36.1676C418.209 36.1196 418.286 36.0654 418.405 36.0049L418.779 35.7695L418.796 35.7157C418.82 35.7035 418.844 35.6914 418.868 35.6793L419.01 35.6067L420.114 34.9543L420.346 34.7916L421.094 34.3208L421.236 34.2481L421.29 34.2656L421.557 34.0847L421.77 33.8863C421.806 33.8979 421.895 33.8674 422.038 33.7948L422.323 33.6495L422.537 33.5406L422.75 33.4316L423 33.3045C423.047 33.2207 423.219 33.1478 423.517 33.0859L424.052 32.8135C424.361 32.7158 424.688 32.6238 425.033 32.5377L425.105 32.5014C425.556 32.2714 426.39 32.1756 427.607 32.2141C427.655 32.2495 427.852 32.3136 428.199 32.4064C428.569 32.487 428.82 32.5686 428.952 32.6511C429.395 32.8147 430.035 33.1915 430.875 33.7814C431.511 34.2655 432.04 34.834 432.462 35.4867ZM432.765 37.6669L432 35.9016L431.729 35.5459L430.863 34.5507L430.809 34.5332L430.791 34.4976C430.574 34.1892 430.142 33.8406 429.495 33.452C428.859 33.0275 428.19 32.8 427.486 32.7696C426.567 32.7288 425.924 32.7576 425.555 32.8558L425.502 33.0172C425.359 32.9706 425.275 32.9533 425.251 32.9654L425.144 33.0199L424.36 33.33L424.752 33.1302C424.05 33.3383 423.592 33.4968 423.378 33.6057L423.36 33.6595C423.241 33.6604 423.17 33.6968 423.147 33.7685C423.135 33.8044 423.123 33.8104 423.111 33.7867C423.075 33.7154 422.985 33.7459 422.843 33.8781L422.077 34.3133C422.03 34.3375 421.959 34.3738 421.864 34.4222C421.792 34.4586 421.715 34.483 421.632 34.4956L420.848 34.9845L420.563 35.1298L420.26 35.3289L420.207 35.3114C420.135 35.3477 420.023 35.4201 419.868 35.5286C419.726 35.6013 419.607 35.6618 419.512 35.7102C419.441 35.7465 419.298 35.849 419.085 36.0176C418.883 36.1503 418.723 36.2469 418.604 36.3075C418.319 36.4527 418.141 36.5733 418.07 36.6693L417.643 36.9766C416.635 37.6999 415.989 38.2235 415.705 38.5477C415.694 38.5836 415.486 38.764 415.083 39.0891C414.396 39.6191 413.791 40.1663 413.271 40.7308L411.425 42.6589C410.786 43.3435 410.479 43.7096 410.503 43.7571L410.486 43.8109C410.438 43.8351 410.397 43.8712 410.361 43.9192C410.338 43.9313 410.296 43.9674 410.237 44.0275C410.178 44.0876 410.101 44.1716 410.006 44.2797C409.936 44.3756 409.865 44.4716 409.794 44.5675L409.245 45.3409C409.174 45.4369 409.175 45.4965 409.247 45.5198C409.259 45.5436 409.253 45.5615 409.229 45.5736C409.217 45.5498 409.163 45.5622 409.068 45.6106L408.573 46.4015L408.185 47.0484C408.138 47.1323 408.061 47.2461 407.955 47.3901C407.86 47.4981 407.807 47.5701 407.795 47.6059L407.743 47.7673C407.683 47.7678 407.63 47.8398 407.584 47.9832L407.496 48.1628C407.46 48.1511 407.424 48.1693 407.389 48.2173C407.365 48.2294 407.347 48.2534 407.336 48.2892L407.124 48.7559L406.716 49.1884C406.634 49.3202 406.481 49.5778 406.257 49.9611C406.033 50.3444 405.886 50.6139 405.816 50.7694C405.757 50.8892 405.64 51.1286 405.464 51.4877C405.299 51.8109 405.158 52.1221 405.041 52.4211C404.936 52.6843 404.802 53.0371 404.638 53.4796C404.474 53.9221 404.305 54.4124 404.13 54.9504C403.909 55.6319 403.772 56.42 403.719 57.3149C403.69 58.1976 403.761 58.8948 403.932 59.4063C404.066 59.8465 404.464 60.3623 405.124 60.9536C405.604 61.3673 406.184 61.5061 406.862 61.3697C406.898 61.3814 406.934 61.393 406.97 61.4047L407.024 61.4222L407.899 61.2903C408.471 61.1786 408.81 61.0806 408.917 60.9963C409.808 60.6318 410.456 60.3466 410.86 60.1408L411.546 58.5792C411.604 58.3999 411.657 58.2981 411.705 58.2739C411.776 58.2376 411.829 58.106 411.863 57.8792C411.874 57.8433 411.921 57.7296 412.003 57.5382C412.097 57.3109 412.167 57.1553 412.214 57.0715L412.636 56.0486C412.741 55.7854 412.864 55.4685 413.004 55.0977C413.133 54.7032 413.244 54.3922 413.337 54.1649L413.478 53.824C413.62 53.7513 414.134 52.3521 415.02 49.6262L415.633 47.9221C415.705 47.8858 415.746 47.7901 415.756 47.635C415.768 47.5395 415.82 47.3483 415.913 47.0613L416.193 46.29C416.31 45.9909 416.387 45.8472 416.423 45.8589C416.446 45.8468 416.464 45.793 416.475 45.6975C416.463 45.6141 416.579 45.2256 416.824 44.532C417.081 43.8026 417.309 43.2225 417.508 42.7916C417.59 42.6002 417.666 42.3969 417.736 42.1817C417.748 42.0862 417.789 42.0203 417.86 41.9839C417.896 41.936 417.931 41.8582 417.966 41.7506L418.001 41.643C418.072 41.6663 418.125 41.5645 418.159 41.3377C418.347 40.883 418.636 40.4515 419.026 40.0431C419.428 39.5987 419.701 39.3999 419.844 39.4465L419.97 39.4277C420.053 39.4151 420.154 39.4084 420.273 39.4075C420.404 39.3707 420.524 39.3698 420.631 39.4048C421.265 39.6504 421.56 39.9344 421.514 40.2567C421.491 40.3285 421.432 40.3885 421.337 40.437C421.242 40.4854 421.146 40.4444 421.05 40.3139C420.508 39.6025 419.964 39.4754 419.419 39.9327C418.992 40.2699 418.65 40.7734 418.393 41.4432C418.381 41.4791 418.34 41.545 418.269 41.6409L417.988 42.3229C417.918 42.5977 417.749 43.0581 417.48 43.7042L417.076 44.6732C416.725 45.5704 416.525 46.031 416.478 46.0552C416.43 46.0795 416.413 46.1631 416.426 46.3061C416.439 46.4491 416.398 46.5448 416.303 46.5932C416.208 46.6417 416.19 46.6955 416.251 46.7546C416.287 46.8259 416.281 46.9035 416.234 46.9873C415.987 47.3828 415.894 47.6399 415.954 47.7587C415.966 47.7824 415.948 47.8064 415.901 47.8306C415.818 47.8432 415.753 48.0107 415.708 48.333C415.651 48.6912 415.535 49.1095 415.36 49.5879L414.273 52.5657L414.098 53.1037C413.855 53.9762 413.632 54.5086 413.431 54.7009C413.348 54.7731 413.313 54.8807 413.326 55.0237C413.327 55.143 413.316 55.2683 413.293 55.3996L412.151 58.0917C412.127 58.1634 412.08 58.2174 412.009 58.2537C411.973 58.2421 411.92 58.314 411.849 58.4696C411.791 58.5893 411.773 58.6729 411.798 58.7204C411.846 58.8155 411.741 59.1383 411.483 59.6888C411.471 59.7247 411.454 59.7487 411.43 59.7608L411.769 59.633C411.792 59.5613 412.278 59.164 413.227 58.4413L413.795 57.9718C414.626 57.3692 415.348 56.672 415.962 55.8803L416.654 55.1237L416.973 54.7813C417.246 54.5527 417.441 54.3485 417.559 54.1687L417.772 53.8808C418.21 53.4482 418.416 53.2081 418.392 53.1606L418.658 52.8008C418.669 52.7649 418.74 52.6988 418.871 52.6024C419.001 52.506 419.078 52.4219 419.102 52.3502C419.183 52.0991 419.396 51.8411 419.74 51.5761L419.863 51.2889L419.952 51.1988C419.999 51.1746 420.017 51.1506 420.005 51.1269C420.064 51.1264 420.165 51.0302 420.307 50.8383L420.501 50.5149C420.714 50.3463 420.892 50.166 421.033 49.9741C421.163 49.8181 421.629 49.0871 422.43 47.7811C422.689 47.3498 422.854 47.0265 422.924 46.8113C422.78 46.7647 422.761 46.6396 422.867 46.4361C423.081 46.3271 423.26 46.2959 423.403 46.3426C423.713 46.3641 423.562 46.8303 422.949 47.7414L422.4 48.5148C421.007 50.4216 419.944 51.8011 419.211 52.6534L418.697 53.2298C418.697 53.2894 418.633 53.3973 418.503 53.5533C418.36 53.6855 418.266 53.7638 418.218 53.788C418.171 53.8718 418.065 53.9859 417.899 54.1303L417.562 54.6159C417.396 54.7006 417.296 54.8564 417.262 55.0833L417.173 55.1734C417.09 55.1859 416.877 55.3843 416.534 55.7686C416.297 56.0685 415.853 56.4893 415.202 57.0309L414.687 57.6073C414.51 57.7875 414.397 57.8897 414.35 57.914L414.278 57.9503C414.243 57.9982 414.207 58.0462 414.172 58.0942C414.125 58.1184 414.059 58.1666 413.976 58.2388C413.917 58.2989 413.858 58.359 413.799 58.419C413.704 58.4675 413.526 58.5881 413.265 58.7809C413.028 58.9616 412.856 59.094 412.749 59.1783L411.699 59.9377C411.617 60.0098 411.456 60.1065 411.219 60.2275L410.357 62.2376L408.407 66.8678C408.349 67.0472 408.214 67.3702 408.003 67.8369L407.738 68.3756L407.388 69.2727L406.79 70.6547L406.297 71.7139C406.215 71.965 406.08 72.2582 405.892 72.5935C405.928 72.5455 405.981 72.5034 406.052 72.4671C406.123 72.4308 406.319 72.2862 406.639 72.0333C406.983 71.7683 407.351 71.521 407.743 71.2915C408.122 71.0381 408.556 70.8023 409.043 70.5839L409.293 70.4568L412.302 68.6093C413.038 68.1743 413.46 67.9445 413.567 67.9199L414.51 67.3045L416.559 66.2156L416.541 66.18C416.565 66.1678 416.601 66.1497 416.648 66.1255C416.683 66.0775 416.713 66.0475 416.737 66.0354L417.218 65.7455C418.404 64.9613 419.081 64.497 419.246 64.3526C419.317 64.2567 419.542 64.082 419.922 63.8287C420.764 63.1902 421.392 62.6905 421.807 62.3296L423.815 60.5433C424.514 59.9179 424.851 59.5814 424.827 59.5339C424.815 59.5101 424.821 59.4922 424.844 59.4801C424.892 59.4559 424.928 59.4377 424.951 59.4256C424.963 59.3897 424.998 59.3418 425.058 59.2817C425.117 59.2216 425.2 59.1494 425.306 59.0651C425.401 58.9571 425.484 58.8551 425.555 58.7591L426.175 58.0389C426.258 57.9667 426.276 57.9129 426.228 57.8775C426.216 57.8537 426.221 57.8358 426.245 57.8237C426.257 57.8474 426.311 57.8351 426.406 57.7867L426.955 57.0133L427.096 56.8512C427.132 56.8032 427.209 56.7191 427.327 56.599C427.469 56.4667 427.552 56.3647 427.575 56.293C427.812 56.0527 427.93 55.8729 427.929 55.7536L428.302 55.4288C428.586 55.1643 428.957 54.5711 429.416 53.6493C429.463 53.6251 429.504 53.5294 429.539 53.3622C429.597 53.1828 429.644 53.0692 429.679 53.0212C429.963 52.7567 430.311 52.1458 430.721 51.1886L431.564 49.1429C431.869 48.4488 432.021 48.0422 432.02 47.9229L432.037 47.8691L432.21 47.0628L432.365 46.3103C432.401 46.2623 432.365 46.2209 432.257 46.1859C432.269 46.15 432.286 46.1261 432.31 46.1139C432.393 46.1014 432.435 46.0653 432.434 46.0057L432.518 45.2895L432.567 44.5914C432.578 44.5556 432.59 44.4899 432.601 44.3944C432.612 44.2989 432.618 44.2213 432.617 44.1617C432.617 44.1021 432.628 44.0662 432.652 44.0541L432.669 43.9109C432.764 43.8624 432.781 43.7788 432.721 43.66L432.684 43.4993C432.66 43.4518 432.689 43.3919 432.772 43.3197L432.768 42.8725L432.8 42.3177L432.796 41.7811L432.865 41.4765L432.863 41.2081C432.887 41.196 432.892 41.0887 432.879 40.886C432.877 40.6475 432.869 40.3971 432.855 40.1349C432.853 39.8367 432.857 39.6399 432.868 39.5444L432.885 39.4012C433.014 39.1259 433.013 38.947 432.881 38.8645C432.821 38.8054 432.813 38.5848 432.858 38.2028L432.875 38.0596C432.827 38.0242 432.779 37.9589 432.73 37.8639C432.706 37.7567 432.717 37.6911 432.765 37.6669ZM403.853 74.9346C403.959 74.8503 404.16 74.5685 404.454 74.0892L404.312 74.1619C403.766 74.4999 403.44 74.7409 403.334 74.8849L402.285 75.7336C401.704 76.1793 401.266 76.6119 400.971 77.0316C400.935 77.0796 400.841 77.1876 400.687 77.3558C400.557 77.5118 400.439 77.6617 400.332 77.8057L400.155 77.9859C400.107 78.0101 399.978 78.196 399.766 78.5434C399.542 78.9268 399.413 79.1722 399.378 79.2798C399.331 79.4233 399.314 79.5367 399.327 79.6201L399.487 79.4937C399.582 79.4452 399.677 79.3968 399.772 79.3484C400.223 79.1184 400.597 78.8233 400.892 78.4633L401.62 77.6886C401.856 77.4482 402.264 76.986 402.843 76.3018L403.446 75.5459L403.853 74.9346ZM436.567 48.4343C436.151 48.676 435.824 48.8276 435.586 48.889C434.943 49.037 434.56 48.7835 434.436 48.1285C434.399 48.0572 434.392 47.8963 434.414 47.6457C434.491 46.7387 434.872 45.9308 435.559 45.2219C436.02 44.7175 436.335 44.5422 436.503 44.696C436.551 44.7314 436.534 44.8448 436.452 45.0363C436.393 45.2156 436.27 45.473 436.082 45.8083C435.753 46.4548 435.422 46.9224 435.091 47.2112C434.913 47.3914 434.825 47.5412 434.826 47.6604C434.744 47.9115 434.823 48.1554 435.064 48.3921C435.197 48.5938 435.548 48.5494 436.118 48.2588C437.27 47.5822 438.526 46.4934 439.886 44.9923L440.808 43.8941L441.73 42.7959C441.848 42.6757 441.937 42.6452 441.997 42.7044C442.033 42.716 442.022 42.7817 441.963 42.9014C441.928 42.9494 441.892 42.9974 441.857 43.0453L441.786 43.1711C441.515 43.519 441.284 43.801 441.095 44.0171C440.93 44.2211 440.74 44.4372 440.527 44.6654C440.338 44.8815 440.161 45.0916 439.996 45.2956C438.92 46.5918 437.777 47.638 436.567 48.4343ZM434.998 46.7647L435.3 46.4761C435.359 46.4161 435.412 46.3441 435.459 46.2603C435.801 45.7568 436.001 45.4154 436.06 45.236C436.047 45.2123 435.982 45.2605 435.864 45.3806C435.757 45.4649 435.663 45.573 435.58 45.7048C435.473 45.7891 435.344 45.9749 435.191 46.2623C435.062 46.5376 434.997 46.705 434.998 46.7647ZM447.662 42.781C447.175 43.059 446.813 43.2287 446.575 43.2902C445.777 43.487 445.292 43.1508 445.118 42.2815C445.069 42.0672 445.02 41.9722 444.973 41.9964C444.961 41.9727 444.907 42.0148 444.813 42.1229C444.612 42.4344 444.221 42.7833 443.64 43.1693C443.45 43.2662 443.289 43.3032 443.158 43.2803C443.026 43.2575 442.972 43.2102 442.996 43.1384L442.677 43.5702C442.618 43.6899 442.548 43.8157 442.465 43.9475C442.053 44.6065 441.775 44.9128 441.631 44.8661C441.524 44.8312 441.463 44.6826 441.449 44.4203C441.481 43.9549 441.637 43.2919 441.917 42.4311C441.952 42.3831 442.012 42.3528 442.095 42.3403C442.202 42.3156 442.262 42.3151 442.274 42.3389L442.329 42.4458C442.437 42.5404 442.374 42.8867 442.14 43.4848L442.07 43.7C442.106 43.7117 442.141 43.6935 442.177 43.6455L442.23 43.5736L442.336 43.4297L442.371 43.3221L442.742 42.7289L442.848 42.4955C442.977 42.2203 443.131 42.1118 443.31 42.17C443.382 42.1933 443.431 42.2884 443.456 42.4552C443.445 42.6103 443.481 42.6816 443.565 42.669C443.672 42.6443 443.968 42.4036 444.454 41.9467C444.927 41.4661 445.175 41.1899 445.199 41.1181C445.34 40.8666 445.506 40.7521 445.697 40.7745C445.84 40.8211 445.871 40.9401 445.789 41.1315C445.589 41.5028 445.556 41.8787 445.69 42.2593C445.8 42.5328 445.92 42.7107 446.052 42.7932C446.28 42.9465 446.667 42.884 447.214 42.6055C448.223 42.0016 449.466 40.889 450.945 39.2677L451.336 38.8891L452.257 37.7909L452.382 37.6826L452.647 37.3228C452.671 37.3107 452.701 37.2806 452.736 37.2327C452.772 37.1847 452.801 37.1546 452.825 37.1425L452.932 37.0881C453.039 37.123 453.087 37.1584 453.076 37.1943C453.088 37.2181 453.047 37.284 452.952 37.392L452.881 37.5178C452.374 38.1656 451.777 38.8738 451.091 39.6423C450.015 40.9385 448.872 41.9847 447.662 42.781ZM454.412 38.3542C454.293 38.4147 454.168 38.4038 454.036 38.3213C453.88 38.2509 453.79 38.1323 453.765 37.9656C453.704 37.8468 453.679 37.7098 453.69 37.5547L453.67 37.2507C453.658 37.227 453.616 37.2631 453.546 37.359C453.498 37.4428 453.44 37.5625 453.369 37.7181C453.287 37.8499 453.216 37.9757 453.158 38.0954C452.852 38.7298 452.557 39.1196 452.272 39.2649C452.058 39.3739 451.915 39.3571 451.842 39.2145C451.806 39.1432 451.835 38.9939 451.928 38.7666C452.174 38.1923 452.539 37.5575 453.023 36.8621C453.247 36.5384 453.389 36.3465 453.448 36.2864C453.531 36.2142 453.602 36.2077 453.662 36.2669C453.687 36.3144 453.758 36.3079 453.877 36.2474C453.972 36.1989 454.044 36.1924 454.092 36.2278C454.151 36.2274 454.181 36.2868 454.182 36.406C454.171 36.5015 454.166 36.5791 454.166 36.6387C454.167 36.6984 454.149 36.782 454.114 36.8896C453.987 37.4034 454.049 37.7607 454.301 37.9615C454.326 38.009 454.373 38.0146 454.445 37.9783C454.54 37.9299 454.617 37.8756 454.676 37.8155L454.8 37.7073C455.18 37.3943 456.007 36.4637 457.284 34.9156L457.337 34.8436L457.444 34.7892L457.498 34.8066C457.533 34.8183 457.563 34.8479 457.588 34.8954C457.6 34.9192 457.6 34.949 457.588 34.9848L456.029 36.9466L454.946 38.0818L454.839 38.1363C454.709 38.2327 454.566 38.3053 454.412 38.3542ZM452.18 38.9078L452.357 38.7276C452.747 38.1999 452.971 37.8464 453.029 37.667C453.076 37.5236 453.188 37.3319 453.365 37.092C453.483 36.9719 453.53 36.888 453.506 36.8405C453.47 36.7692 453.351 36.8894 453.151 37.201C452.749 37.7049 452.473 38.19 452.321 38.6563L452.18 38.9078ZM461.217 34.887C460.81 34.7947 460.623 34.486 460.655 33.961C460.677 33.7104 460.688 33.5553 460.687 33.4957C460.616 33.5916 460.463 33.8194 460.227 34.1789C459.686 35.1729 459.07 35.756 458.38 35.9282C458.023 35.9906 457.766 35.8971 457.609 35.6478C457.271 35.1614 457.215 34.8756 457.441 34.7904C457.489 34.7662 457.566 34.7716 457.674 34.8066C457.817 34.8532 457.896 34.948 457.909 35.091C457.921 35.1148 457.915 35.1625 457.892 35.2342C457.869 35.306 457.863 35.3537 457.875 35.3775C457.972 35.5676 458.08 35.6622 458.199 35.6612C458.641 35.7056 459.28 35.0508 460.116 33.6968C460.317 33.3852 460.47 33.1276 460.576 32.9241C460.693 32.6847 460.763 32.5291 460.787 32.4574C460.81 32.3856 460.839 32.3258 460.875 32.2778C460.934 32.2177 461.005 32.1516 461.088 32.0794C461.218 31.983 461.355 31.9283 461.498 31.9153C461.618 32.0336 461.655 32.1645 461.608 32.308C461.384 32.5721 461.232 32.9787 461.153 33.5279C461.061 34.0534 461.129 34.3927 461.357 34.546C461.549 34.6877 461.976 34.3803 462.638 33.624C463.288 32.8438 463.819 32.0944 464.231 31.3758L464.284 31.3038L464.391 31.2493L464.445 31.2668C464.505 31.2663 464.546 31.2899 464.571 31.3374C464.583 31.3612 464.571 31.397 464.536 31.445L462.978 33.5856C462.282 34.5688 461.694 35.0026 461.217 34.887ZM464.436 33.3364L464.238 33.2127C464.142 33.1419 464.063 32.9576 464.002 32.6599C463.977 32.5528 463.993 32.3797 464.051 32.1408C464.109 31.9018 464.19 31.6209 464.295 31.2981C464.4 30.9753 464.452 30.7841 464.452 30.7245C464.522 30.5689 464.593 30.5028 464.665 30.5261C464.808 30.5131 464.845 30.6738 464.776 31.0082C464.511 32.1909 464.402 32.8 464.45 32.8354C464.594 32.9416 464.795 32.7493 465.054 32.2584C465.313 31.7674 465.488 31.2891 465.58 30.8233L465.597 30.68L465.701 30.3572L465.718 30.214C465.776 30.0346 465.859 29.9326 465.966 29.908C466.157 29.8707 466.166 30.2404 465.993 31.0169C465.981 31.0528 465.969 31.0886 465.958 31.1245C465.854 31.6262 465.886 31.9241 466.054 32.0182C466.078 32.0657 466.132 32.0832 466.215 32.0707C466.287 32.0343 466.34 31.9922 466.375 31.9442L466.464 31.8541C466.843 31.5411 467.683 30.6045 468.983 29.0443L469.036 28.9723L469.107 28.936L469.197 28.9353C469.256 28.9349 469.287 28.9645 469.287 29.0241C469.299 29.0479 469.287 29.0837 469.252 29.1317L468.933 29.5634L467.728 31.0753L466.646 32.2105L466.539 32.265C466.29 32.4815 466.088 32.5546 465.932 32.4843C465.765 32.3901 465.656 32.2359 465.607 32.0216L465.534 31.8791L465.517 31.9329L465.376 32.2738C465.153 32.7764 464.911 33.0943 464.65 33.2274L464.436 33.3364Z" fill="#7C1111"/>
</svg>
