<svg width="78" height="78" viewBox="0 0 78 78" fill="none" xmlns="http://www.w3.org/2000/svg">
<circle cx="39" cy="39" r="39" fill="#7C1111"/>
<path d="M22.1202 41.5L22.3202 41.1H27.6202L27.7602 41.5H22.1202ZM32.2202 46.76C32.2736 46.76 32.3002 46.8 32.3002 46.88C32.3002 46.96 32.2736 47 32.2202 47C31.8336 47 31.4402 46.9867 31.0402 46.96C30.6402 46.9333 30.2536 46.92 29.8802 46.92C29.4669 46.92 29.1069 46.9333 28.8002 46.96C28.4936 46.9867 28.1536 47 27.7802 47C27.7269 47 27.7002 46.96 27.7002 46.88C27.7002 46.8 27.7269 46.76 27.7802 46.76C28.4869 46.76 28.9269 46.66 29.1002 46.46C29.2736 46.2467 29.2269 45.8533 28.9602 45.28L24.5202 35.9L25.0202 35.28L21.1402 44.46C20.8069 45.2733 20.7869 45.86 21.0802 46.22C21.3736 46.58 21.9536 46.76 22.8202 46.76C22.8869 46.76 22.9202 46.8 22.9202 46.88C22.9202 46.96 22.8869 47 22.8202 47C22.4202 47 22.0536 46.9867 21.7202 46.96C21.3869 46.9333 20.9669 46.92 20.4602 46.92C19.9802 46.92 19.5936 46.9333 19.3002 46.96C19.0202 46.9867 18.6736 47 18.2602 47C18.2069 47 18.1802 46.96 18.1802 46.88C18.1802 46.8 18.2069 46.76 18.2602 46.76C18.6202 46.76 18.9336 46.6933 19.2002 46.56C19.4669 46.4133 19.7136 46.1667 19.9402 45.82C20.1802 45.46 20.4402 44.9467 20.7202 44.28L24.9402 34.32C24.9669 34.28 25.0136 34.26 25.0802 34.26C25.1469 34.26 25.1869 34.28 25.2002 34.32L29.9202 44.26C30.2269 44.9133 30.5002 45.4267 30.7402 45.8C30.9802 46.16 31.2136 46.4133 31.4402 46.56C31.6802 46.6933 31.9402 46.76 32.2202 46.76ZM33.5632 44.26C33.5632 43.6467 33.7099 43.1067 34.0032 42.64C34.2965 42.1733 34.6699 41.7467 35.1232 41.36C35.5899 40.9733 36.0832 40.6067 36.6032 40.26C37.1232 39.9 37.6099 39.5267 38.0632 39.14C38.5299 38.7533 38.9099 38.34 39.2032 37.9C39.4965 37.46 39.6432 36.9533 39.6432 36.38C39.6432 35.78 39.4832 35.32 39.1632 35C38.8432 34.6667 38.4232 34.5 37.9032 34.5C37.3965 34.5 37.0032 34.6533 36.7232 34.96C36.4565 35.2667 36.3232 35.7533 36.3232 36.42C36.3232 37.1133 36.4699 37.82 36.7632 38.54C37.0565 39.2467 37.4632 39.9467 37.9832 40.64C38.5032 41.3333 39.0965 42.0067 39.7632 42.66C40.4432 43.3133 41.1565 43.92 41.9032 44.48C42.7432 45.1067 43.5432 45.62 44.3032 46.02C45.0632 46.4067 45.7032 46.6533 46.2232 46.76C46.2899 46.7733 46.3165 46.82 46.3032 46.9C46.2899 46.9667 46.2632 47 46.2232 47C45.9299 47 45.5899 47 45.2032 47C44.8165 47 44.4365 47 44.0632 47C43.8899 47 43.6632 46.9467 43.3832 46.84C43.1032 46.7333 42.7432 46.5467 42.3032 46.28C41.8765 46 41.3499 45.6 40.7232 45.08C40.0565 44.5467 39.4032 43.9667 38.7632 43.34C38.1232 42.7133 37.5365 42.0667 37.0032 41.4C36.4832 40.72 36.0632 40.06 35.7432 39.42C35.5699 39.0333 35.4299 38.66 35.3232 38.3C35.2165 37.94 35.1632 37.5933 35.1632 37.26C35.1632 36.6733 35.3032 36.14 35.5832 35.66C35.8632 35.18 36.2499 34.8 36.7432 34.52C37.2365 34.2267 37.8165 34.08 38.4832 34.08C38.8432 34.08 39.2032 34.14 39.5632 34.26C39.9232 34.3667 40.2232 34.5667 40.4632 34.86C40.7032 35.14 40.8232 35.54 40.8232 36.06C40.8232 36.6333 40.6765 37.1333 40.3832 37.56C40.1032 37.9733 39.7299 38.36 39.2632 38.72C38.8099 39.0667 38.3299 39.4067 37.8232 39.74C37.3165 40.06 36.8365 40.4067 36.3832 40.78C35.9299 41.14 35.5565 41.5467 35.2632 42C34.9832 42.44 34.8432 42.96 34.8432 43.56C34.8432 44.12 34.9832 44.64 35.2632 45.12C35.5565 45.5867 35.9565 45.96 36.4632 46.24C36.9699 46.5067 37.5432 46.64 38.1832 46.64C38.8099 46.64 39.3899 46.5067 39.9232 46.24C40.4565 45.96 40.9099 45.5933 41.2832 45.14C41.6699 44.6733 41.9632 44.1467 42.1632 43.56C42.3765 42.96 42.4832 42.34 42.4832 41.7C42.4832 41.2733 42.3965 40.9267 42.2232 40.66C42.0632 40.3933 41.6765 40.26 41.0632 40.26C41.0232 40.26 40.9965 40.22 40.9832 40.14C40.9832 40.06 41.0099 40.02 41.0632 40.02L45.2432 40C45.2965 40 45.3232 40.04 45.3232 40.12C45.3232 40.2 45.2965 40.24 45.2432 40.24C44.7765 40.24 44.4299 40.2867 44.2032 40.38C43.9765 40.46 43.8165 40.5867 43.7232 40.76C43.6299 40.9333 43.5432 41.1533 43.4632 41.42C43.3432 41.8733 43.1765 42.3667 42.9632 42.9C42.7632 43.42 42.5032 43.94 42.1832 44.46C41.8765 44.9667 41.4965 45.4333 41.0432 45.86C40.5899 46.2733 40.0499 46.6067 39.4232 46.86C38.8099 47.1133 38.0965 47.24 37.2832 47.24C36.4299 47.24 35.7232 47.1 35.1632 46.82C34.6165 46.5267 34.2099 46.1533 33.9432 45.7C33.6899 45.2333 33.5632 44.7533 33.5632 44.26ZM48.6285 44.82V34.96L49.0885 35V44.82C49.0885 45.5133 49.2085 46.0133 49.4485 46.32C49.6885 46.6133 50.0885 46.76 50.6485 46.76C50.6885 46.76 50.7085 46.8 50.7085 46.88C50.7085 46.96 50.6885 47 50.6485 47C50.3818 47 50.1085 46.9933 49.8285 46.98C49.5485 46.9667 49.2352 46.96 48.8885 46.96C48.5552 46.96 48.2352 46.9667 47.9285 46.98C47.6218 46.9933 47.3285 47 47.0485 47C47.0218 47 47.0085 46.96 47.0085 46.88C47.0085 46.8 47.0218 46.76 47.0485 46.76C47.6352 46.76 48.0418 46.6133 48.2685 46.32C48.5085 46.0133 48.6285 45.5133 48.6285 44.82ZM58.7085 47.24C58.7085 47.2667 58.6752 47.28 58.6085 47.28C58.5418 47.2933 58.4952 47.2933 58.4685 47.28L49.2685 36.14C48.8152 35.5933 48.4085 35.2267 48.0485 35.04C47.7018 34.84 47.3685 34.74 47.0485 34.74C47.0085 34.74 46.9885 34.7 46.9885 34.62C46.9885 34.54 47.0085 34.5 47.0485 34.5C47.2885 34.5 47.5285 34.5067 47.7685 34.52C48.0218 34.5333 48.2485 34.54 48.4485 34.54C48.6885 34.54 48.9152 34.5333 49.1285 34.52C49.3418 34.5067 49.5018 34.5 49.6085 34.5C49.7818 34.5 49.9018 34.58 49.9685 34.74C50.0352 34.8867 50.2285 35.1533 50.5485 35.54L58.5485 45.36L58.7085 47.24ZM58.7085 36.7V47.24L58.2485 46.62V36.7C58.2485 36.0067 58.1285 35.5067 57.8885 35.2C57.6618 34.8933 57.2752 34.74 56.7285 34.74C56.7018 34.74 56.6885 34.7 56.6885 34.62C56.6885 34.54 56.7018 34.5 56.7285 34.5C56.9952 34.5 57.2685 34.5133 57.5485 34.54C57.8418 34.5533 58.1552 34.56 58.4885 34.56C58.8085 34.56 59.1218 34.5533 59.4285 34.54C59.7485 34.5133 60.0418 34.5 60.3085 34.5C60.3485 34.5 60.3685 34.54 60.3685 34.62C60.3685 34.7 60.3485 34.74 60.3085 34.74C59.7352 34.74 59.3218 34.8933 59.0685 35.2C58.8285 35.5067 58.7085 36.0067 58.7085 36.7Z" fill="white"/>
</svg>
